<svg xmlns="http://www.w3.org/2000/svg" xmlns:xlink="http://www.w3.org/1999/xlink" class="plt-container" width="600.0" height="400.0">
  <style type="text/css">
  .plt-container {
   font-family: Lucida Grande, sans-serif;
   user-select: none;
   -webkit-user-select: none;
   -moz-user-select: none;
   -ms-user-select: none;
}
text {
   text-rendering: optimizeLegibility;
}
#pWgBa3G .plot-title {
   fill: #bbbbbb;
   font-family: Lucida Grande, sans-serif;
   font-size: 16.0px;
   font-weight: normal;
   font-style: normal;   
}
#pWgBa3G .plot-subtitle {
   fill: #bbbbbb;
   font-family: Lucida Grande, sans-serif;
   font-size: 15.0px;
   font-weight: normal;
   font-style: normal;   
}
#pWgBa3G .plot-caption {
   fill: #bbbbbb;
   font-family: Lucida Grande, sans-serif;
   font-size: 13.0px;
   font-weight: normal;
   font-style: normal;   
}
#pWgBa3G .legend-title {
   fill: #bbbbbb;
   font-family: Lucida Grande, sans-serif;
   font-size: 15.0px;
   font-weight: normal;
   font-style: normal;   
}
#pWgBa3G .legend-item {
   fill: #bbbbbb;
   font-family: Lucida Grande, sans-serif;
   font-size: 13.0px;
   font-weight: normal;
   font-style: normal;   
}
#pWgBa3G .axis-title-x {
   fill: #bbbbbb;
   font-family: Lucida Grande, sans-serif;
   font-size: 15.0px;
   font-weight: normal;
   font-style: normal;   
}
#pWgBa3G .axis-text-x {
   fill: #bbbbbb;
   font-family: Lucida Grande, sans-serif;
   font-size: 13.0px;
   font-weight: normal;
   font-style: normal;   
}
#d8PQ76f .axis-tooltip-text-x {
   fill: #303030;
   font-family: Lucida Grande, sans-serif;
   font-size: 13.0px;
   font-weight: normal;
   font-style: normal;   
}
#pWgBa3G .axis-title-y {
   fill: #bbbbbb;
   font-family: Lucida Grande, sans-serif;
   font-size: 15.0px;
   font-weight: normal;
   font-style: normal;   
}
#pWgBa3G .axis-text-y {
   fill: #bbbbbb;
   font-family: Lucida Grande, sans-serif;
   font-size: 13.0px;
   font-weight: normal;
   font-style: normal;   
}
#d8PQ76f .axis-tooltip-text-y {
   fill: #303030;
   font-family: Lucida Grande, sans-serif;
   font-size: 13.0px;
   font-weight: normal;
   font-style: normal;   
}
#pWgBa3G .facet-strip-text-x {
   fill: #bbbbbb;
   font-family: Lucida Grande, sans-serif;
   font-size: 13.0px;
   font-weight: normal;
   font-style: normal;   
}
#pWgBa3G .facet-strip-text-y {
   fill: #bbbbbb;
   font-family: Lucida Grande, sans-serif;
   font-size: 13.0px;
   font-weight: normal;
   font-style: normal;   
}
#d8PQ76f .tooltip-text {
   fill: #bbbbbb;
   font-family: Lucida Grande, sans-serif;
   font-size: 13.0px;
   font-weight: normal;
   font-style: normal;   
}
#d8PQ76f .tooltip-title {
   fill: #bbbbbb;
   font-family: Lucida Grande, sans-serif;
   font-size: 13.0px;
   font-weight: bold;
   font-style: normal;   
}
#d8PQ76f .tooltip-label {
   fill: #bbbbbb;
   font-family: Lucida Grande, sans-serif;
   font-size: 13.0px;
   font-weight: bold;
   font-style: normal;   
}

  </style>
  <g id="pWgBa3G">
    <path fill-rule="evenodd" fill="rgb(48,48,48)" fill-opacity="1.0" d="M0.0 0.0 L0.0 400.0 L600.0 400.0 L600.0 0.0 Z">
    </path>
    <g transform="translate(23.0 34.0 ) ">
      <g transform="translate(29.941816366404606 0.0 ) ">
        <line x1="22.728167645935855" y1="320.0" x2="22.728167645935855" y2="5.684341886080801E-14" stroke="rgb(71,71,71)" stroke-opacity="1.0" stroke-width="1.0" fill="none">
        </line>
        <line x1="106.90656633458717" y1="320.0" x2="106.90656633458717" y2="5.684341886080801E-14" stroke="rgb(71,71,71)" stroke-opacity="1.0" stroke-width="1.0" fill="none">
        </line>
        <line x1="191.08496502323848" y1="320.0" x2="191.08496502323848" y2="5.684341886080801E-14" stroke="rgb(71,71,71)" stroke-opacity="1.0" stroke-width="1.0" fill="none">
        </line>
        <line x1="275.2633637118898" y1="320.0" x2="275.2633637118898" y2="5.684341886080801E-14" stroke="rgb(71,71,71)" stroke-opacity="1.0" stroke-width="1.0" fill="none">
        </line>
        <line x1="359.4417624005411" y1="320.0" x2="359.4417624005411" y2="5.684341886080801E-14" stroke="rgb(71,71,71)" stroke-opacity="1.0" stroke-width="1.0" fill="none">
        </line>
        <line x1="443.62016108919244" y1="320.0" x2="443.62016108919244" y2="5.684341886080801E-14" stroke="rgb(71,71,71)" stroke-opacity="1.0" stroke-width="1.0" fill="none">
        </line>
        <line x1="527.7985597778437" y1="320.0" x2="527.7985597778437" y2="5.684341886080801E-14" stroke="rgb(71,71,71)" stroke-opacity="1.0" stroke-width="1.0" fill="none">
        </line>
      </g>
      <g transform="translate(29.941816366404606 320.0 ) ">
        <g transform="translate(22.728167645935855 0.0 ) ">
          <line stroke-width="1.0" stroke="rgb(187,187,187)" stroke-opacity="1.0" x2="0.0" y2="4.0">
          </line>
          <g transform="translate(0.0 7.0 ) ">
            <text class="axis-text-x" text-anchor="middle" dy="0.7em">
              <tspan>0</tspan>
            </text>
          </g>
        </g>
        <g transform="translate(106.90656633458717 0.0 ) ">
          <line stroke-width="1.0" stroke="rgb(187,187,187)" stroke-opacity="1.0" x2="0.0" y2="4.0">
          </line>
          <g transform="translate(0.0 7.0 ) ">
            <text class="axis-text-x" text-anchor="middle" dy="0.7em">
              <tspan>50</tspan>
            </text>
          </g>
        </g>
        <g transform="translate(191.08496502323848 0.0 ) ">
          <line stroke-width="1.0" stroke="rgb(187,187,187)" stroke-opacity="1.0" x2="0.0" y2="4.0">
          </line>
          <g transform="translate(0.0 7.0 ) ">
            <text class="axis-text-x" text-anchor="middle" dy="0.7em">
              <tspan>100</tspan>
            </text>
          </g>
        </g>
        <g transform="translate(275.2633637118898 0.0 ) ">
          <line stroke-width="1.0" stroke="rgb(187,187,187)" stroke-opacity="1.0" x2="0.0" y2="4.0">
          </line>
          <g transform="translate(0.0 7.0 ) ">
            <text class="axis-text-x" text-anchor="middle" dy="0.7em">
              <tspan>150</tspan>
            </text>
          </g>
        </g>
        <g transform="translate(359.4417624005411 0.0 ) ">
          <line stroke-width="1.0" stroke="rgb(187,187,187)" stroke-opacity="1.0" x2="0.0" y2="4.0">
          </line>
          <g transform="translate(0.0 7.0 ) ">
            <text class="axis-text-x" text-anchor="middle" dy="0.7em">
              <tspan>200</tspan>
            </text>
          </g>
        </g>
        <g transform="translate(443.62016108919244 0.0 ) ">
          <line stroke-width="1.0" stroke="rgb(187,187,187)" stroke-opacity="1.0" x2="0.0" y2="4.0">
          </line>
          <g transform="translate(0.0 7.0 ) ">
            <text class="axis-text-x" text-anchor="middle" dy="0.7em">
              <tspan>250</tspan>
            </text>
          </g>
        </g>
        <g transform="translate(527.7985597778437 0.0 ) ">
          <line stroke-width="1.0" stroke="rgb(187,187,187)" stroke-opacity="1.0" x2="0.0" y2="4.0">
          </line>
          <g transform="translate(0.0 7.0 ) ">
            <text class="axis-text-x" text-anchor="middle" dy="0.7em">
              <tspan>300</tspan>
            </text>
          </g>
        </g>
        <line x1="0.0" y1="0.0" x2="537.0581836335954" y2="0.0" stroke-width="1.0" stroke="rgb(187,187,187)" stroke-opacity="1.0">
        </line>
      </g>
      <g transform="translate(29.941816366404606 0.0 ) ">
        <line x1="0.0" y1="305.58357606336233" x2="537.0581836335954" y2="305.58357606336233" stroke="rgb(71,71,71)" stroke-opacity="1.0" stroke-width="1.0" fill="none">
        </line>
        <line x1="0.0" y1="260.95723085105146" x2="537.0581836335954" y2="260.95723085105146" stroke="rgb(71,71,71)" stroke-opacity="1.0" stroke-width="1.0" fill="none">
        </line>
        <line x1="0.0" y1="216.33088563874054" x2="537.0581836335954" y2="216.33088563874054" stroke="rgb(71,71,71)" stroke-opacity="1.0" stroke-width="1.0" fill="none">
        </line>
        <line x1="0.0" y1="171.70454042642967" x2="537.0581836335954" y2="171.70454042642967" stroke="rgb(71,71,71)" stroke-opacity="1.0" stroke-width="1.0" fill="none">
        </line>
        <line x1="0.0" y1="127.07819521411878" x2="537.0581836335954" y2="127.07819521411878" stroke="rgb(71,71,71)" stroke-opacity="1.0" stroke-width="1.0" fill="none">
        </line>
        <line x1="0.0" y1="82.45185000180791" x2="537.0581836335954" y2="82.45185000180791" stroke="rgb(71,71,71)" stroke-opacity="1.0" stroke-width="1.0" fill="none">
        </line>
        <line x1="0.0" y1="37.82550478949702" x2="537.0581836335954" y2="37.82550478949702" stroke="rgb(71,71,71)" stroke-opacity="1.0" stroke-width="1.0" fill="none">
        </line>
      </g>
      <g transform="translate(29.941816366404606 0.0 ) ">
        <g transform="translate(0.0 305.58357606336233 ) ">
          <g transform="translate(-3.0 0.0 ) ">
            <text class="axis-text-y" text-anchor="end" dy="0.35em">
              <tspan>0</tspan>
            </text>
          </g>
        </g>
        <g transform="translate(0.0 260.95723085105146 ) ">
          <g transform="translate(-3.0 0.0 ) ">
            <text class="axis-text-y" text-anchor="end" dy="0.35em">
              <tspan>50</tspan>
            </text>
          </g>
        </g>
        <g transform="translate(0.0 216.33088563874054 ) ">
          <g transform="translate(-3.0 0.0 ) ">
            <text class="axis-text-y" text-anchor="end" dy="0.35em">
              <tspan>100</tspan>
            </text>
          </g>
        </g>
        <g transform="translate(0.0 171.70454042642967 ) ">
          <g transform="translate(-3.0 0.0 ) ">
            <text class="axis-text-y" text-anchor="end" dy="0.35em">
              <tspan>150</tspan>
            </text>
          </g>
        </g>
        <g transform="translate(0.0 127.07819521411878 ) ">
          <g transform="translate(-3.0 0.0 ) ">
            <text class="axis-text-y" text-anchor="end" dy="0.35em">
              <tspan>200</tspan>
            </text>
          </g>
        </g>
        <g transform="translate(0.0 82.45185000180791 ) ">
          <g transform="translate(-3.0 0.0 ) ">
            <text class="axis-text-y" text-anchor="end" dy="0.35em">
              <tspan>250</tspan>
            </text>
          </g>
        </g>
        <g transform="translate(0.0 37.82550478949702 ) ">
          <g transform="translate(-3.0 0.0 ) ">
            <text class="axis-text-y" text-anchor="end" dy="0.35em">
              <tspan>300</tspan>
            </text>
          </g>
        </g>
      </g>
      <g transform="translate(29.941816366404606 0.0 ) " clip-path="url(#cWrJi2k)" clip-bounds-jfx="[rect (0.0, 0.0), (537.0581836335954, 320.0)]">
        <defs>
          <clipPath id="cWrJi2k">
            <rect x="0.0" y="0.0" width="537.0581836335954" height="320.0">
            </rect>
          </clipPath>
        </defs>
        <g>
          <path d="M24.41173561970888 14.545454545454618 L24.41173561970888 14.545454545454618 L26.09530359348191 259.66789067152735 L27.77887156725493 288.32861947309 L29.462439541027962 289.4771602776212 L31.146007514800985 288.09459134878716 L32.82957548857401 211.74675631385233 L34.51314346234704 285.4232319970664 L36.19671143612007 305.4545454545455 L37.88027940989309 304.58516852443404 L39.563847383666115 248.18865079853967 L41.247415357439145 301.39682784167087 L42.93098333121217 78.14331422294214 L44.6145513049852 287.1401117821981 L46.29811927875822 282.10514084137964 L47.981687252531245 292.06197240756256 L49.665255226304275 241.03169587987725 L51.348823200077305 241.03169587987725 L53.03239117385033 253.69575316030938 L54.71595914762335 253.69575316030938 L56.39952712139638 121.60701301238717 L58.083095095169405 279.6569842226391 L59.766663068942435 283.3356976626906 L61.45023104271546 245.08984544610132 L63.13379901648848 303.59494035328834 L64.81736699026152 287.38120379726263 L66.50093496403454 287.33557835186343 L68.18450293780757 279.8349126934526 L69.86807091158059 217.58600382046262 L71.55163888535361 267.97645524690967 L73.23520685912663 297.0179162185014 L74.91877483289967 211.80693931103517 L76.6023428066727 170.3481713024184 L78.28591078044572 170.3481713024184 L79.96947875421876 276.24461263941953 L81.65304672799178 262.90423808311857 L83.3366147017648 262.90423808311857 L85.02018267553782 280.74715798241414 L86.70375064931085 192.98806053846442 L88.38731862308389 292.64376079807863 L90.07088659685691 292.64376079807863 L91.75445457062993 290.3673711242693 L93.43802254440295 294.5808690759776 L95.12159051817598 299.835520443796 L96.80515849194902 287.6843265256291 L98.48872646572204 241.37111615871953 L100.17229443949506 241.37111615871953 L101.85586241326808 299.08683510394224 L103.53943038704111 293.5570085782308 L105.22299836081415 286.261807061543 L106.90656633458717 284.45678205314283 L108.59013430836019 267.7016675011553 L110.27370228213321 270.2531569710588 L111.95727025590625 284.15716048435235 L113.64083822967928 275.48482089784085 L115.3244062034523 284.33893904963764 L117.00797417722532 291.6866335305261 L118.69154215099834 303.6557469868766 L120.37511012477138 292.20837381854284 L122.0586780985444 285.29983067703387 L123.74224607231743 286.8285570350629 L125.42581404609045 230.09563297876824 L127.10938201986349 230.09563297876824 L128.7929499936365 277.29843085693733 L130.47651796740954 272.6016426634625 L132.16008594118256 298.6625518451694 L133.84365391495558 292.36203558194325 L135.5272218887286 288.42099126831437 L137.21078986250166 252.49038733377319 L138.89435783627465 256.10703710029645 L140.5779258100477 272.60399481486155 L142.26149378382073 293.67753497558624 L143.94506175759375 295.13460224207824 L145.62862973136677 295.13460224207824 L147.3121977051398 291.17859666338984 L148.99576567891282 283.16655148281654 L150.67933365268584 291.3936378335812 L152.36290162645886 294.1797480392037 L154.04646960023192 287.15789732798635 L155.73003757400494 299.1799574451303 L157.41360554777796 268.64296423521324 L159.09717352155099 254.77835406490814 L160.780741495324 287.2866611971236 L162.46430946909703 248.9999488078289 L164.14787744287005 293.3674106333028 L165.83144541664308 305.22198899244944 L167.5150133904161 244.8191277614289 L169.19858136418915 244.8191277614289 L170.88214933796218 241.22396120201344 L172.5657173117352 275.4133989552198 L174.24928528550822 288.5005540490067 L175.93285325928125 290.89291613519555 L177.61642123305427 284.0346906580155 L179.2999892068273 281.054890706956 L180.98355718060031 273.8293525332899 L182.66712515437334 273.8293525332899 L184.35069312814636 245.77445492666897 L186.0342611019194 245.77445492666897 L187.71782907569244 284.68562176647663 L189.40139704946546 284.68562176647663 L191.08496502323848 280.1001140550531 L192.7685329970115 292.5347017166181 L194.45210097078453 286.38095219479254 L196.13566894455755 290.11576914153153 L197.81923691833057 299.53583653275916 L199.5028048921036 302.8761175865115 L201.18637286587665 291.990944651711 L202.86994083964967 290.5942490628686 L204.5535088134227 225.62591963404137 L206.23707678719572 284.05258392471757 L207.92064476096874 265.0415590937191 L209.60421273474176 282.3554103139563 L211.2877807085148 286.0699440046856 L212.9713486822878 289.9925815074035 L214.65491665606083 289.64884057015684 L216.33848462983389 290.6605366327798 L218.0220526036069 292.60563863330947 L219.70562057737993 277.11439268180504 L221.38918855115296 262.8849854010201 L223.07275652492598 288.3741698160975 L224.756324498699 260.3956042743944 L226.43989247247202 261.7106526378353 L228.12346044624505 246.8465258926063 L229.80702842001807 272.30211538175763 L231.49059639379112 284.3558723489518 L233.17416436756415 223.74833536638334 L234.85773234133717 246.92698000501755 L236.5413003151102 288.838392071529 L238.22486828888321 286.81636336543824 L239.90843626265624 285.54097276535936 L241.59200423642926 296.52188405631216 L243.27557221020228 284.4562564117646 L244.9591401839753 298.2155620271302 L246.64270815774836 287.37064235765394 L248.32627613152138 287.37064235765394 L250.0098441052944 287.70367591262846 L251.69341207906743 290.8048370787583 L253.37698005284045 289.7133878007877 L255.06054802661347 277.94109231011146 L256.7441160003865 292.70653460211025 L258.42768397415955 291.98145619666894 L260.11125194793254 287.4700634408085 L261.7948199217056 251.16161906400518 L263.4783878954786 251.16161906400518 L265.16195586925164 289.5345584516573 L266.8455238430247 221.81314045667074 L268.5290918167977 265.19789110001955 L270.2126597905707 285.9082640865527 L271.89622776434373 263.57731623074966 L273.5797957381168 263.57731623074966 L275.2633637118898 272.48169119345295 L276.94693168566283 288.60451196882207 L278.6304996594358 274.236278165237 L280.3140676332089 278.2733785328228 L281.9976356069819 283.3162313173972 L283.6812035807549 284.617950840966 L285.364771554528 299.07143474662524 L287.04833952830097 276.5995181863979 L288.731907502074 276.5995181863979 L290.415475475847 286.9640145563668 L292.09904344962007 286.8570737584307 L293.78261142339306 282.4245529333906 L295.4661793971661 288.84236159600545 L297.1497473709391 288.84236159600545 L298.83331534471216 278.84684936728365 L300.5168833184852 278.6028895918438 L302.2004512922582 271.7737543062736 L303.88401926603126 298.3944853536785 L305.56758723980425 281.6249906337908 L307.2511552135773 283.87283904655095 L308.9347231873503 299.39854325262496 L310.61829116112335 283.5058812666182 L312.30185913489635 284.182245025421 L313.9854271086694 284.182245025421 L315.66899508244245 280.6972159105177 L317.35256305621544 291.9584498482904 L319.0361310299885 291.8213496195637 L320.7196990037615 293.70980208856514 L322.40326697753454 294.63870053881595 L324.08683495130754 294.63870053881595 L325.7704029250806 292.5913242790533 L327.4539708988536 282.8533844278005 L329.13753887262664 285.34601577643485 L330.8211068463997 289.2811582584225 L332.5046748201727 289.2811582584225 L334.18824279394573 281.25186216238046 L335.8718107677187 281.25186216238046 L337.5553787414918 274.3723063138632 L339.2389467152648 286.9747760159626 L340.9225146890378 302.63754533194066 L342.6060826628108 287.15524500970747 L344.2896506365839 291.47799280700576 L345.97321861035687 288.61151955799346 L347.6567865841299 301.8510904578092 L349.34035455790297 286.9139170580391 L351.02392253167596 291.45140566699433 L352.707490505449 296.1730601653541 L354.391058479222 296.1730601653541 L356.07462645299506 301.132183754119 L357.75819442676806 280.3958268827671 L359.4417624005411 284.96534385817074 L361.1253303743141 300.54163693345095 L362.80889834808715 300.54163693345095 L364.4924663218602 304.9338074727098 L366.1760342956332 294.18901318427834 L367.85960226940625 299.7197278914632 L369.54317024317925 278.2337379992398 L371.2267382169523 284.3811792809969 L372.9103061907253 287.9950850236477 L374.59387416449835 284.6391158779901 L376.27744213827134 278.83863306568526 L377.9610101120444 292.60089092758034 L379.64457808581744 287.6306943814787 L381.32814605959044 285.7928843939638 L383.0117140333635 296.139135891333 L384.6952820071365 295.9242233580079 L386.37884998090954 295.9242233580079 L388.06241795468253 285.0756395847031 L389.7459859284556 304.7854448718574 L391.4295539022286 287.6488408333365 L393.1131218760016 297.79941498471624 L394.7966898497747 297.79941498471624 L396.4802578235477 296.0418572771765 L398.1638257973207 290.43557682029325 L399.8473937710937 278.32786582457976 L401.5309617448668 278.32786582457976 L403.21452971863977 282.1573283341547 L404.8980976924128 288.3832911847659 L406.5816656661858 284.7633019798096 L408.26523363995886 282.77106748849496 L409.9488016137319 284.76907046937947 L411.6323695875049 286.38364226038163 L413.31593756127796 293.39157641529994 L414.99950553505096 288.4851157482717 L416.683073508824 271.31842631010284 L418.366641482597 290.67974032786617 L420.05020945637006 291.0075276436747 L421.73377743014305 277.1703744481369 L423.4173454039161 299.4008577493607 L425.10091337768915 280.22040253254374 L426.78448135146215 304.3841340546829 L428.4680493252352 279.74416993563113 L430.1516172990082 279.74416993563113 L431.83518527278125 289.18897651112746 L433.51875324655424 287.82887699881394 L435.2023212203273 292.8801358704072 L436.8858891941003 302.5796305656248 L438.56945716787334 288.30309477576446 L440.2530251416464 275.12836080918674 L441.9365931154194 288.8778813930867 L443.62016108919244 265.5133909053277 L445.30372906296543 303.6085254859949 L446.9872970367385 301.6845859326743 L448.6708650105115 301.6845859326743 L450.35443298428453 300.5298861074928 L452.0380009580575 296.9928991608591 L453.7215689318306 296.9928991608591 L455.4051369056036 278.52310821077776 L457.0887048793766 290.3382729058659 L458.7722728531497 290.3382729058659 L460.45584082692267 303.5677764082806 L462.1394088006957 295.14440553683113 L463.8229767744687 301.8837379680991 L465.50654474824177 288.7198207651933 L467.19011272201476 291.9682085889396 L468.8736806957878 297.2792452200119 L470.55724866956086 287.1924706831794 L472.24081664333386 284.03355549896753 L473.9243846171069 303.1147079249876 L475.6079525908799 291.01590917764554 L477.29152056465296 287.1242853693595 L478.97508853842595 297.01410750419024 L480.658656512199 296.2180914289754 L482.342224485972 305.0158111848162 L484.02579245974505 284.18606930196466 L485.7093604335181 296.7194281568541 L487.3929284072911 296.93916522438013 L489.07649638106415 302.2572223311523 L490.76006435483714 290.6138498536997 L492.4436323286102 300.5423013330562 L494.1272003023832 286.95207467321995 L495.81076827615624 292.4014515376642 L497.49433624992923 293.1891290064673 L499.1779042237023 291.8327747045214 L500.86147219747534 291.8327747045214 L502.54504017124833 294.9472312620336 L504.2286081450214 292.55937047692316 L505.9121761187944 295.86508952117185 L507.59574409256743 304.4294931969665 L509.2793120663404 290.73184394428597 L510.9628800401135 291.635203606555 L512.6464480138865 286.9199967891516 " fill="none" stroke-width="1.6500000000000001" stroke="rgb(187,187,187)" stroke-opacity="1.0">
          </path>
        </g>
      </g>
    </g>
    <g transform="translate(52.94181636640461 15.2 ) ">
      <text class="plot-title" y="0.0">
        <tspan>Frequency Domain for alt.atheism - Toxicity Signal</tspan>
      </text>
    </g>
    <g transform="translate(14.5 194.0 ) rotate(-90.0 ) ">
      <text class="axis-title-y" y="0.0" text-anchor="middle">
        <tspan>Amplitude</tspan>
      </text>
    </g>
    <g transform="translate(321.4709081832023 391.5 ) ">
      <text class="axis-title-x" y="0.0" text-anchor="middle">
        <tspan>Frequency</tspan>
      </text>
    </g>
    <path fill="rgb(0,0,0)" fill-opacity="0.0" stroke="rgb(187,187,187)" stroke-opacity="1.0" stroke-width="0.0" d="M0.0 0.0 L0.0 400.0 L600.0 400.0 L600.0 0.0 Z">
    </path>
  </g>
  <g id="d8PQ76f">
  </g>
</svg>