<svg xmlns="http://www.w3.org/2000/svg" xmlns:xlink="http://www.w3.org/1999/xlink" class="plt-container" width="600.0" height="400.0">
  <style type="text/css">
  .plt-container {
   font-family: Lucida Grande, sans-serif;
   user-select: none;
   -webkit-user-select: none;
   -moz-user-select: none;
   -ms-user-select: none;
}
text {
   text-rendering: optimizeLegibility;
}
#pSghVU1 .plot-title {
   fill: #bbbbbb;
   font-family: Lucida Grande, sans-serif;
   font-size: 16.0px;
   font-weight: normal;
   font-style: normal;   
}
#pSghVU1 .plot-subtitle {
   fill: #bbbbbb;
   font-family: Lucida Grande, sans-serif;
   font-size: 15.0px;
   font-weight: normal;
   font-style: normal;   
}
#pSghVU1 .plot-caption {
   fill: #bbbbbb;
   font-family: Lucida Grande, sans-serif;
   font-size: 13.0px;
   font-weight: normal;
   font-style: normal;   
}
#pSghVU1 .legend-title {
   fill: #bbbbbb;
   font-family: Lucida Grande, sans-serif;
   font-size: 15.0px;
   font-weight: normal;
   font-style: normal;   
}
#pSghVU1 .legend-item {
   fill: #bbbbbb;
   font-family: Lucida Grande, sans-serif;
   font-size: 13.0px;
   font-weight: normal;
   font-style: normal;   
}
#pSghVU1 .axis-title-x {
   fill: #bbbbbb;
   font-family: Lucida Grande, sans-serif;
   font-size: 15.0px;
   font-weight: normal;
   font-style: normal;   
}
#pSghVU1 .axis-text-x {
   fill: #bbbbbb;
   font-family: Lucida Grande, sans-serif;
   font-size: 13.0px;
   font-weight: normal;
   font-style: normal;   
}
#dXvyQ8T .axis-tooltip-text-x {
   fill: #303030;
   font-family: Lucida Grande, sans-serif;
   font-size: 13.0px;
   font-weight: normal;
   font-style: normal;   
}
#pSghVU1 .axis-title-y {
   fill: #bbbbbb;
   font-family: Lucida Grande, sans-serif;
   font-size: 15.0px;
   font-weight: normal;
   font-style: normal;   
}
#pSghVU1 .axis-text-y {
   fill: #bbbbbb;
   font-family: Lucida Grande, sans-serif;
   font-size: 13.0px;
   font-weight: normal;
   font-style: normal;   
}
#dXvyQ8T .axis-tooltip-text-y {
   fill: #303030;
   font-family: Lucida Grande, sans-serif;
   font-size: 13.0px;
   font-weight: normal;
   font-style: normal;   
}
#pSghVU1 .facet-strip-text-x {
   fill: #bbbbbb;
   font-family: Lucida Grande, sans-serif;
   font-size: 13.0px;
   font-weight: normal;
   font-style: normal;   
}
#pSghVU1 .facet-strip-text-y {
   fill: #bbbbbb;
   font-family: Lucida Grande, sans-serif;
   font-size: 13.0px;
   font-weight: normal;
   font-style: normal;   
}
#dXvyQ8T .tooltip-text {
   fill: #bbbbbb;
   font-family: Lucida Grande, sans-serif;
   font-size: 13.0px;
   font-weight: normal;
   font-style: normal;   
}
#dXvyQ8T .tooltip-title {
   fill: #bbbbbb;
   font-family: Lucida Grande, sans-serif;
   font-size: 13.0px;
   font-weight: bold;
   font-style: normal;   
}
#dXvyQ8T .tooltip-label {
   fill: #bbbbbb;
   font-family: Lucida Grande, sans-serif;
   font-size: 13.0px;
   font-weight: bold;
   font-style: normal;   
}

  </style>
  <g id="pSghVU1">
    <path fill-rule="evenodd" fill="rgb(48,48,48)" fill-opacity="1.0" d="M0.0 0.0 L0.0 400.0 L600.0 400.0 L600.0 0.0 Z">
    </path>
    <g transform="translate(23.0 34.0 ) ">
      <g transform="translate(29.941816366404606 0.0 ) ">
        <line x1="22.728167645935855" y1="320.0" x2="22.728167645935855" y2="0.0" stroke="rgb(71,71,71)" stroke-opacity="1.0" stroke-width="1.0" fill="none">
        </line>
        <line x1="106.90656633458717" y1="320.0" x2="106.90656633458717" y2="0.0" stroke="rgb(71,71,71)" stroke-opacity="1.0" stroke-width="1.0" fill="none">
        </line>
        <line x1="191.08496502323848" y1="320.0" x2="191.08496502323848" y2="0.0" stroke="rgb(71,71,71)" stroke-opacity="1.0" stroke-width="1.0" fill="none">
        </line>
        <line x1="275.2633637118898" y1="320.0" x2="275.2633637118898" y2="0.0" stroke="rgb(71,71,71)" stroke-opacity="1.0" stroke-width="1.0" fill="none">
        </line>
        <line x1="359.4417624005411" y1="320.0" x2="359.4417624005411" y2="0.0" stroke="rgb(71,71,71)" stroke-opacity="1.0" stroke-width="1.0" fill="none">
        </line>
        <line x1="443.62016108919244" y1="320.0" x2="443.62016108919244" y2="0.0" stroke="rgb(71,71,71)" stroke-opacity="1.0" stroke-width="1.0" fill="none">
        </line>
        <line x1="527.7985597778437" y1="320.0" x2="527.7985597778437" y2="0.0" stroke="rgb(71,71,71)" stroke-opacity="1.0" stroke-width="1.0" fill="none">
        </line>
      </g>
      <g transform="translate(29.941816366404606 320.0 ) ">
        <g transform="translate(22.728167645935855 0.0 ) ">
          <line stroke-width="1.0" stroke="rgb(187,187,187)" stroke-opacity="1.0" x2="0.0" y2="4.0">
          </line>
          <g transform="translate(0.0 7.0 ) ">
            <text class="axis-text-x" text-anchor="middle" dy="0.7em">
              <tspan>0</tspan>
            </text>
          </g>
        </g>
        <g transform="translate(106.90656633458717 0.0 ) ">
          <line stroke-width="1.0" stroke="rgb(187,187,187)" stroke-opacity="1.0" x2="0.0" y2="4.0">
          </line>
          <g transform="translate(0.0 7.0 ) ">
            <text class="axis-text-x" text-anchor="middle" dy="0.7em">
              <tspan>50</tspan>
            </text>
          </g>
        </g>
        <g transform="translate(191.08496502323848 0.0 ) ">
          <line stroke-width="1.0" stroke="rgb(187,187,187)" stroke-opacity="1.0" x2="0.0" y2="4.0">
          </line>
          <g transform="translate(0.0 7.0 ) ">
            <text class="axis-text-x" text-anchor="middle" dy="0.7em">
              <tspan>100</tspan>
            </text>
          </g>
        </g>
        <g transform="translate(275.2633637118898 0.0 ) ">
          <line stroke-width="1.0" stroke="rgb(187,187,187)" stroke-opacity="1.0" x2="0.0" y2="4.0">
          </line>
          <g transform="translate(0.0 7.0 ) ">
            <text class="axis-text-x" text-anchor="middle" dy="0.7em">
              <tspan>150</tspan>
            </text>
          </g>
        </g>
        <g transform="translate(359.4417624005411 0.0 ) ">
          <line stroke-width="1.0" stroke="rgb(187,187,187)" stroke-opacity="1.0" x2="0.0" y2="4.0">
          </line>
          <g transform="translate(0.0 7.0 ) ">
            <text class="axis-text-x" text-anchor="middle" dy="0.7em">
              <tspan>200</tspan>
            </text>
          </g>
        </g>
        <g transform="translate(443.62016108919244 0.0 ) ">
          <line stroke-width="1.0" stroke="rgb(187,187,187)" stroke-opacity="1.0" x2="0.0" y2="4.0">
          </line>
          <g transform="translate(0.0 7.0 ) ">
            <text class="axis-text-x" text-anchor="middle" dy="0.7em">
              <tspan>250</tspan>
            </text>
          </g>
        </g>
        <g transform="translate(527.7985597778437 0.0 ) ">
          <line stroke-width="1.0" stroke="rgb(187,187,187)" stroke-opacity="1.0" x2="0.0" y2="4.0">
          </line>
          <g transform="translate(0.0 7.0 ) ">
            <text class="axis-text-x" text-anchor="middle" dy="0.7em">
              <tspan>300</tspan>
            </text>
          </g>
        </g>
        <line x1="0.0" y1="0.0" x2="537.0581836335954" y2="0.0" stroke-width="1.0" stroke="rgb(187,187,187)" stroke-opacity="1.0">
        </line>
      </g>
      <g transform="translate(29.941816366404606 0.0 ) ">
        <line x1="0.0" y1="305.45902120928434" x2="537.0581836335954" y2="305.45902120928434" stroke="rgb(71,71,71)" stroke-opacity="1.0" stroke-width="1.0" fill="none">
        </line>
        <line x1="0.0" y1="260.30697575165556" x2="537.0581836335954" y2="260.30697575165556" stroke="rgb(71,71,71)" stroke-opacity="1.0" stroke-width="1.0" fill="none">
        </line>
        <line x1="0.0" y1="215.1549302940268" x2="537.0581836335954" y2="215.1549302940268" stroke="rgb(71,71,71)" stroke-opacity="1.0" stroke-width="1.0" fill="none">
        </line>
        <line x1="0.0" y1="170.00288483639804" x2="537.0581836335954" y2="170.00288483639804" stroke="rgb(71,71,71)" stroke-opacity="1.0" stroke-width="1.0" fill="none">
        </line>
        <line x1="0.0" y1="124.85083937876925" x2="537.0581836335954" y2="124.85083937876925" stroke="rgb(71,71,71)" stroke-opacity="1.0" stroke-width="1.0" fill="none">
        </line>
        <line x1="0.0" y1="79.69879392114049" x2="537.0581836335954" y2="79.69879392114049" stroke="rgb(71,71,71)" stroke-opacity="1.0" stroke-width="1.0" fill="none">
        </line>
        <line x1="0.0" y1="34.54674846351173" x2="537.0581836335954" y2="34.54674846351173" stroke="rgb(71,71,71)" stroke-opacity="1.0" stroke-width="1.0" fill="none">
        </line>
      </g>
      <g transform="translate(29.941816366404606 0.0 ) ">
        <g transform="translate(0.0 305.45902120928434 ) ">
          <g transform="translate(-3.0 0.0 ) ">
            <text class="axis-text-y" text-anchor="end" dy="0.35em">
              <tspan>0</tspan>
            </text>
          </g>
        </g>
        <g transform="translate(0.0 260.30697575165556 ) ">
          <g transform="translate(-3.0 0.0 ) ">
            <text class="axis-text-y" text-anchor="end" dy="0.35em">
              <tspan>50</tspan>
            </text>
          </g>
        </g>
        <g transform="translate(0.0 215.1549302940268 ) ">
          <g transform="translate(-3.0 0.0 ) ">
            <text class="axis-text-y" text-anchor="end" dy="0.35em">
              <tspan>100</tspan>
            </text>
          </g>
        </g>
        <g transform="translate(0.0 170.00288483639804 ) ">
          <g transform="translate(-3.0 0.0 ) ">
            <text class="axis-text-y" text-anchor="end" dy="0.35em">
              <tspan>150</tspan>
            </text>
          </g>
        </g>
        <g transform="translate(0.0 124.85083937876925 ) ">
          <g transform="translate(-3.0 0.0 ) ">
            <text class="axis-text-y" text-anchor="end" dy="0.35em">
              <tspan>200</tspan>
            </text>
          </g>
        </g>
        <g transform="translate(0.0 79.69879392114049 ) ">
          <g transform="translate(-3.0 0.0 ) ">
            <text class="axis-text-y" text-anchor="end" dy="0.35em">
              <tspan>250</tspan>
            </text>
          </g>
        </g>
        <g transform="translate(0.0 34.54674846351173 ) ">
          <g transform="translate(-3.0 0.0 ) ">
            <text class="axis-text-y" text-anchor="end" dy="0.35em">
              <tspan>300</tspan>
            </text>
          </g>
        </g>
      </g>
      <g transform="translate(29.941816366404606 0.0 ) " clip-path="url(#cRpyZhY)" clip-bounds-jfx="[rect (0.0, 0.0), (537.0581836335954, 320.0)]">
        <defs>
          <clipPath id="cRpyZhY">
            <rect x="0.0" y="0.0" width="537.0581836335954" height="320.0">
            </rect>
          </clipPath>
        </defs>
        <g>
          <path d="M24.41173561970888 295.14959515472816 L24.41173561970888 295.14959515472816 L26.09530359348191 291.20184133594034 L27.77887156725493 292.571622877552 L29.462439541027962 282.7298868465521 L31.146007514800985 288.9678467679937 L32.82957548857401 14.545454545454561 L34.51314346234704 294.32580887632474 L36.19671143612007 298.6170982749684 L37.88027940989309 304.4552298503526 L39.563847383666115 305.04904897160844 L41.247415357439145 294.7221401321862 L42.93098333121217 296.72615483421237 L44.6145513049852 300.25622447722856 L46.29811927875822 296.05511947246043 L47.981687252531245 298.0821060942409 L49.665255226304275 297.05914264423814 L51.348823200077305 301.96423196603024 L53.03239117385033 299.2555902878876 L54.71595914762335 294.96624438868986 L56.39952712139638 304.3695392613662 L58.083095095169405 304.33873764759306 L59.766663068942435 301.423082158723 L61.45023104271546 297.4933012863357 L63.13379901648848 297.9936335669899 L64.81736699026152 305.01944245538994 L66.50093496403454 303.73818362660927 L68.18450293780757 304.5224189889307 L69.86807091158059 305.40349746844157 L71.55163888535361 301.34793745008653 L73.23520685912663 303.059177811805 L74.91877483289967 304.96203002567 L76.6023428066727 303.749078021633 L78.28591078044572 285.54220201631085 L79.96947875421876 304.4283061450347 L81.65304672799178 304.11637489388033 L83.3366147017648 303.52568286485695 L85.02018267553782 304.9197534003686 L86.70375064931085 304.7104135918536 L88.38731862308389 302.89659252645885 L90.07088659685691 302.27329542001746 L91.75445457062993 305.0568493465006 L93.43802254440295 305.02072832478245 L95.12159051817598 303.9687145109263 L96.80515849194902 299.7408353014193 L98.48872646572204 301.4367343194043 L100.17229443949506 299.06036203137984 L101.85586241326808 300.1454133474082 L103.53943038704111 301.59346330081326 L105.22299836081415 304.17099300750743 L106.90656633458717 299.4418833274676 L108.59013430836019 303.1605343753304 L110.27370228213321 302.3158361254511 L111.95727025590625 305.1116703323157 L113.64083822967928 303.390593272364 L115.3244062034523 304.6615217516435 L117.00797417722532 302.9770483889314 L118.69154215099834 302.5549328668076 L120.37511012477138 303.93567022206935 L122.0586780985444 302.78441400614236 L123.74224607231743 302.3047799511862 L125.42581404609045 304.7314632669516 L127.10938201986349 303.193889531395 L128.7929499936365 303.0472760302782 L130.47651796740954 303.06007988985715 L132.16008594118256 299.79648825898744 L133.84365391495558 302.58991395788195 L135.5272218887286 303.787422022097 L137.21078986250166 300.6773549743964 L138.89435783627465 301.48734606134917 L140.5779258100477 305.29090610311107 L142.26149378382073 302.72804900417725 L143.94506175759375 305.12293674138914 L145.62862973136677 305.42315044926215 L147.3121977051398 304.73620086345187 L148.99576567891282 305.21854432840564 L150.67933365268584 301.210651840668 L152.36290162645886 302.06082472198034 L154.04646960023192 305.1044286260442 L155.73003757400494 304.63145995332854 L157.41360554777796 303.86805581545144 L159.09717352155099 302.2858276180477 L160.780741495324 302.20539779790124 L162.46430946909703 301.79224084012384 L164.14787744287005 304.0200595363141 L165.83144541664308 301.4682725001727 L167.5150133904161 303.997893747219 L169.19858136418915 302.4692238462796 L170.88214933796218 300.12701826874695 L172.5657173117352 302.3550913247995 L174.24928528550822 304.6867381330605 L175.93285325928125 305.3433987396432 L177.61642123305427 304.2979577400456 L179.2999892068273 303.9074895594903 L180.98355718060031 304.8727544692223 L182.66712515437334 304.24992197041104 L184.35069312814636 304.87564947643807 L186.0342611019194 304.2557125908744 L187.71782907569244 299.8237595980854 L189.40139704946546 302.76514336874027 L191.08496502323848 303.8716179912022 L192.7685329970115 300.2146471196576 L194.45210097078453 304.1846136124681 L196.13566894455755 301.81480429130147 L197.81923691833057 305.20428959022837 L199.5028048921036 302.7376475363212 L201.18637286587665 303.0739054859896 L202.86994083964967 305.131362590142 L204.5535088134227 303.4637359446907 L206.23707678719572 302.5494087444683 L207.92064476096874 301.54442300626255 L209.60421273474176 304.8027400601251 L211.2877807085148 304.6561358354007 L212.9713486822878 302.8680002260197 L214.65491665606083 304.991530114341 L216.33848462983389 304.0959609353836 L218.0220526036069 301.6798037568273 L219.70562057737993 304.8416011784923 L221.38918855115296 305.4501450254776 L223.07275652492598 304.65895090584087 L224.756324498699 304.30351967679087 L226.43989247247202 299.29227957071146 L228.12346044624505 305.26168385462336 L229.80702842001807 304.9251259572396 L231.49059639379112 303.7190975911069 L233.17416436756415 303.7149236106843 L234.85773234133717 305.24297792381566 L236.5413003151102 302.76944915738363 L238.22486828888321 305.2656810804158 L239.90843626265624 304.4921780219211 L241.59200423642926 302.81970571700174 L243.27557221020228 304.66719944718835 L244.9591401839753 303.5825045544078 L246.64270815774836 302.90306899105354 L248.32627613152138 304.97907818293 L250.0098441052944 303.35464610104805 L251.69341207906743 304.9392061005767 L253.37698005284045 299.33703074846045 L255.06054802661347 302.6068304205526 L256.7441160003865 302.445614501046 L258.42768397415955 305.0638781431311 L260.11125194793254 304.3335186808911 L261.7948199217056 304.6890706643824 L263.4783878954786 304.3887418826405 L265.16195586925164 302.3374532003802 L266.8455238430247 305.4146322187787 L268.5290918167977 303.1621358147041 L270.2126597905707 303.2790061364801 L271.89622776434373 304.9934303874101 L273.5797957381168 303.8497949091085 L275.2633637118898 303.9084599981949 L276.94693168566283 303.08928195388046 L278.6304996594358 304.909336067575 L280.3140676332089 304.02091500627904 L281.9976356069819 304.38918594201505 L283.6812035807549 304.4415314810713 L285.364771554528 304.7114088223323 L287.04833952830097 303.08566764329714 L288.731907502074 304.9404290545888 L290.415475475847 299.9002274219799 L292.09904344962007 302.33723854006234 L293.78261142339306 305.0464558339705 L295.4661793971661 301.22186748751744 L297.1497473709391 303.4274710190866 L298.83331534471216 303.85368653838117 L300.5168833184852 305.3990365243728 L302.2004512922582 302.00357050974105 L303.88401926603126 304.13058603026184 L305.56758723980425 305.3973607855047 L307.2511552135773 302.5428176673029 L308.9347231873503 304.58800324152895 L310.61829116112335 302.475614121313 L312.30185913489635 304.11520626830503 L313.9854271086694 305.17293541312347 L315.66899508244245 302.83360921395314 L317.35256305621544 303.221631821121 L319.0361310299885 302.411917591828 L320.7196990037615 304.9655839462271 L322.40326697753454 304.03451661140986 L324.08683495130754 304.92771819882483 L325.7704029250806 302.887571077182 L327.4539708988536 303.6024052141428 L329.13753887262664 302.2858739230971 L330.8211068463997 302.5862785982033 L332.5046748201727 304.3287387317883 L334.18824279394573 305.29555308091506 L335.8718107677187 303.95577147789305 L337.5553787414918 305.04447520272873 L339.2389467152648 299.0183334454357 L340.9225146890378 303.8725629762016 L342.6060826628108 305.01156897227594 L344.2896506365839 303.53476922414103 L345.97321861035687 304.21882115124333 L347.6567865841299 304.8297464728929 L349.34035455790297 304.39961330495026 L351.02392253167596 303.3023842617428 L352.707490505449 303.60615214250737 L354.391058479222 302.78162499614297 L356.07462645299506 304.84975378805274 L357.75819442676806 303.2222423658995 L359.4417624005411 304.7476268823801 L361.1253303743141 305.2481940361665 L362.80889834808715 303.03794848398576 L364.4924663218602 304.91702360086236 L366.1760342956332 297.1025862848044 L367.85960226940625 303.1701728065942 L369.54317024317925 299.31329487906874 L371.2267382169523 302.21207514386094 L372.9103061907253 303.0738769232443 L374.59387416449835 297.47895432567105 L376.27744213827134 301.5642600959872 L377.9610101120444 305.2780950179409 L379.64457808581744 304.9476513308247 L381.32814605959044 304.63859287258117 L383.0117140333635 304.9740462549552 L384.6952820071365 305.0554604344558 L386.37884998090954 303.1945027309223 L388.06241795468253 303.3929807642217 L389.7459859284556 305.28277998924204 L391.4295539022286 304.51363906230006 L393.1131218760016 304.128340187707 L394.7966898497747 305.08318855287143 L396.4802578235477 304.7463323388395 L398.1638257973207 304.87085040425495 L399.8473937710937 299.2759757494887 L401.5309617448668 303.91759081895634 L403.21452971863977 303.57755160789463 L404.8980976924128 304.36938017800964 L406.5816656661858 304.476271084569 L408.26523363995886 304.41568560899725 L409.9488016137319 303.58582060871925 L411.6323695875049 304.9929760109388 L413.31593756127796 301.01951624248693 L414.99950553505096 299.47371686501106 L416.683073508824 301.545992249563 L418.366641482597 303.99227332767714 L420.05020945637006 304.5742706568044 L421.73377743014305 302.58791067533923 L423.4173454039161 302.9625965641274 L425.10091337768915 304.60494462925425 L426.78448135146215 303.88039609447463 L428.4680493252352 302.9512539567466 L430.1516172990082 304.37665172307373 L431.83518527278125 303.99284137475223 L433.51875324655424 304.8224144530751 L435.2023212203273 303.10370037987207 L436.8858891941003 303.26689211988577 L438.56945716787334 297.5526926310661 L440.2530251416464 302.14803538634084 L441.9365931154194 303.11659923073165 L443.62016108919244 304.6704174146157 L445.30372906296543 300.25033728424285 L446.9872970367385 302.37038606933044 L448.6708650105115 302.5832765848169 L450.35443298428453 301.1904532307801 L452.0380009580575 296.5168296833038 L453.7215689318306 302.7419581764302 L455.4051369056036 303.0103428015143 L457.0887048793766 301.0394813445026 L458.7722728531497 304.03255061541427 L460.45584082692267 304.46888746746026 L462.1394088006957 305.45454545454544 L463.8229767744687 301.91313529780905 L465.50654474824177 301.3389837707808 L467.19011272201476 304.1401677639516 L468.8736806957878 302.8223869501838 L470.55724866956086 304.2375228567479 L472.24081664333386 301.2087680740648 L473.9243846171069 303.0186810609244 L475.6079525908799 302.48527465317073 L477.29152056465296 302.48527465317073 L478.97508853842595 304.74376077746325 L480.658656512199 304.460961748167 L482.342224485972 303.0762154068527 L484.02579245974505 305.0634548039703 L485.7093604335181 304.53131555755095 L487.3929284072911 304.2070176752985 L489.07649638106415 304.56339769748257 L490.76006435483714 305.3853129334556 L492.4436323286102 305.22502878898314 L494.1272003023832 302.1102343432964 L495.81076827615624 302.2323743427482 L497.49433624992923 303.29120860936956 L499.1779042237023 304.33069791572524 L500.86147219747534 300.4956422728062 L502.54504017124833 302.0539357133287 L504.2286081450214 304.995857520165 L505.9121761187944 300.1699694628953 L507.59574409256743 303.72784727004876 L509.2793120663404 305.39092830455036 L510.9628800401135 305.2913929653951 L512.6464480138865 304.0848931690822 " fill="none" stroke-width="1.6500000000000001" stroke="rgb(187,187,187)" stroke-opacity="1.0">
          </path>
        </g>
      </g>
    </g>
    <g transform="translate(52.94181636640461 15.2 ) ">
      <text class="plot-title" y="0.0">
        <tspan>Frequency Domain for alt.atheism - Toxicity Signal</tspan>
      </text>
    </g>
    <g transform="translate(14.5 194.0 ) rotate(-90.0 ) ">
      <text class="axis-title-y" y="0.0" text-anchor="middle">
        <tspan>Amplitude</tspan>
      </text>
    </g>
    <g transform="translate(321.4709081832023 391.5 ) ">
      <text class="axis-title-x" y="0.0" text-anchor="middle">
        <tspan>Frequency</tspan>
      </text>
    </g>
    <path fill="rgb(0,0,0)" fill-opacity="0.0" stroke="rgb(187,187,187)" stroke-opacity="1.0" stroke-width="0.0" d="M0.0 0.0 L0.0 400.0 L600.0 400.0 L600.0 0.0 Z">
    </path>
  </g>
  <g id="dXvyQ8T">
  </g>
</svg>