<svg xmlns="http://www.w3.org/2000/svg" xmlns:xlink="http://www.w3.org/1999/xlink" class="plt-container" width="600.0" height="400.0">
  <style type="text/css">
  .plt-container {
   font-family: Lucida Grande, sans-serif;
   user-select: none;
   -webkit-user-select: none;
   -moz-user-select: none;
   -ms-user-select: none;
}
text {
   text-rendering: optimizeLegibility;
}
#p8T4BlJ .plot-title {
   fill: #bbbbbb;
   font-family: Lucida Grande, sans-serif;
   font-size: 16.0px;
   font-weight: normal;
   font-style: normal;   
}
#p8T4BlJ .plot-subtitle {
   fill: #bbbbbb;
   font-family: Lucida Grande, sans-serif;
   font-size: 15.0px;
   font-weight: normal;
   font-style: normal;   
}
#p8T4BlJ .plot-caption {
   fill: #bbbbbb;
   font-family: Lucida Grande, sans-serif;
   font-size: 13.0px;
   font-weight: normal;
   font-style: normal;   
}
#p8T4BlJ .legend-title {
   fill: #bbbbbb;
   font-family: Lucida Grande, sans-serif;
   font-size: 15.0px;
   font-weight: normal;
   font-style: normal;   
}
#p8T4BlJ .legend-item {
   fill: #bbbbbb;
   font-family: Lucida Grande, sans-serif;
   font-size: 13.0px;
   font-weight: normal;
   font-style: normal;   
}
#p8T4BlJ .axis-title-x {
   fill: #bbbbbb;
   font-family: Lucida Grande, sans-serif;
   font-size: 15.0px;
   font-weight: normal;
   font-style: normal;   
}
#p8T4BlJ .axis-text-x {
   fill: #bbbbbb;
   font-family: Lucida Grande, sans-serif;
   font-size: 13.0px;
   font-weight: normal;
   font-style: normal;   
}
#dAMVX62 .axis-tooltip-text-x {
   fill: #303030;
   font-family: Lucida Grande, sans-serif;
   font-size: 13.0px;
   font-weight: normal;
   font-style: normal;   
}
#p8T4BlJ .axis-title-y {
   fill: #bbbbbb;
   font-family: Lucida Grande, sans-serif;
   font-size: 15.0px;
   font-weight: normal;
   font-style: normal;   
}
#p8T4BlJ .axis-text-y {
   fill: #bbbbbb;
   font-family: Lucida Grande, sans-serif;
   font-size: 13.0px;
   font-weight: normal;
   font-style: normal;   
}
#dAMVX62 .axis-tooltip-text-y {
   fill: #303030;
   font-family: Lucida Grande, sans-serif;
   font-size: 13.0px;
   font-weight: normal;
   font-style: normal;   
}
#p8T4BlJ .facet-strip-text-x {
   fill: #bbbbbb;
   font-family: Lucida Grande, sans-serif;
   font-size: 13.0px;
   font-weight: normal;
   font-style: normal;   
}
#p8T4BlJ .facet-strip-text-y {
   fill: #bbbbbb;
   font-family: Lucida Grande, sans-serif;
   font-size: 13.0px;
   font-weight: normal;
   font-style: normal;   
}
#dAMVX62 .tooltip-text {
   fill: #bbbbbb;
   font-family: Lucida Grande, sans-serif;
   font-size: 13.0px;
   font-weight: normal;
   font-style: normal;   
}
#dAMVX62 .tooltip-title {
   fill: #bbbbbb;
   font-family: Lucida Grande, sans-serif;
   font-size: 13.0px;
   font-weight: bold;
   font-style: normal;   
}
#dAMVX62 .tooltip-label {
   fill: #bbbbbb;
   font-family: Lucida Grande, sans-serif;
   font-size: 13.0px;
   font-weight: bold;
   font-style: normal;   
}

  </style>
  <g id="p8T4BlJ">
    <path fill-rule="evenodd" fill="rgb(48,48,48)" fill-opacity="1.0" d="M0.0 0.0 L0.0 400.0 L600.0 400.0 L600.0 0.0 Z">
    </path>
    <g transform="translate(23.0 34.0 ) ">
      <g transform="translate(29.941816366404606 0.0 ) ">
        <line x1="23.49053804915383" y1="320.0" x2="23.49053804915383" y2="0.0" stroke="rgb(71,71,71)" stroke-opacity="1.0" stroke-width="1.0" fill="none">
        </line>
        <line x1="115.61029510465904" y1="320.0" x2="115.61029510465904" y2="0.0" stroke="rgb(71,71,71)" stroke-opacity="1.0" stroke-width="1.0" fill="none">
        </line>
        <line x1="207.73005216016426" y1="320.0" x2="207.73005216016426" y2="0.0" stroke="rgb(71,71,71)" stroke-opacity="1.0" stroke-width="1.0" fill="none">
        </line>
        <line x1="299.8498092156695" y1="320.0" x2="299.8498092156695" y2="0.0" stroke="rgb(71,71,71)" stroke-opacity="1.0" stroke-width="1.0" fill="none">
        </line>
        <line x1="391.9695662711747" y1="320.0" x2="391.9695662711747" y2="0.0" stroke="rgb(71,71,71)" stroke-opacity="1.0" stroke-width="1.0" fill="none">
        </line>
        <line x1="484.0893233266799" y1="320.0" x2="484.0893233266799" y2="0.0" stroke="rgb(71,71,71)" stroke-opacity="1.0" stroke-width="1.0" fill="none">
        </line>
      </g>
      <g transform="translate(29.941816366404606 320.0 ) ">
        <g transform="translate(23.49053804915383 0.0 ) ">
          <line stroke-width="1.0" stroke="rgb(187,187,187)" stroke-opacity="1.0" x2="0.0" y2="4.0">
          </line>
          <g transform="translate(0.0 7.0 ) ">
            <text class="axis-text-x" text-anchor="middle" dy="0.7em">
              <tspan>0</tspan>
            </text>
          </g>
        </g>
        <g transform="translate(115.61029510465904 0.0 ) ">
          <line stroke-width="1.0" stroke="rgb(187,187,187)" stroke-opacity="1.0" x2="0.0" y2="4.0">
          </line>
          <g transform="translate(0.0 7.0 ) ">
            <text class="axis-text-x" text-anchor="middle" dy="0.7em">
              <tspan>100</tspan>
            </text>
          </g>
        </g>
        <g transform="translate(207.73005216016426 0.0 ) ">
          <line stroke-width="1.0" stroke="rgb(187,187,187)" stroke-opacity="1.0" x2="0.0" y2="4.0">
          </line>
          <g transform="translate(0.0 7.0 ) ">
            <text class="axis-text-x" text-anchor="middle" dy="0.7em">
              <tspan>200</tspan>
            </text>
          </g>
        </g>
        <g transform="translate(299.8498092156695 0.0 ) ">
          <line stroke-width="1.0" stroke="rgb(187,187,187)" stroke-opacity="1.0" x2="0.0" y2="4.0">
          </line>
          <g transform="translate(0.0 7.0 ) ">
            <text class="axis-text-x" text-anchor="middle" dy="0.7em">
              <tspan>300</tspan>
            </text>
          </g>
        </g>
        <g transform="translate(391.9695662711747 0.0 ) ">
          <line stroke-width="1.0" stroke="rgb(187,187,187)" stroke-opacity="1.0" x2="0.0" y2="4.0">
          </line>
          <g transform="translate(0.0 7.0 ) ">
            <text class="axis-text-x" text-anchor="middle" dy="0.7em">
              <tspan>400</tspan>
            </text>
          </g>
        </g>
        <g transform="translate(484.0893233266799 0.0 ) ">
          <line stroke-width="1.0" stroke="rgb(187,187,187)" stroke-opacity="1.0" x2="0.0" y2="4.0">
          </line>
          <g transform="translate(0.0 7.0 ) ">
            <text class="axis-text-x" text-anchor="middle" dy="0.7em">
              <tspan>500</tspan>
            </text>
          </g>
        </g>
        <line x1="0.0" y1="0.0" x2="537.0581836335954" y2="0.0" stroke-width="1.0" stroke="rgb(187,187,187)" stroke-opacity="1.0">
        </line>
      </g>
      <g transform="translate(29.941816366404606 0.0 ) ">
        <line x1="0.0" y1="305.4586437834078" x2="537.0581836335955" y2="305.4586437834078" stroke="rgb(71,71,71)" stroke-opacity="1.0" stroke-width="1.0" fill="none">
        </line>
        <line x1="0.0" y1="256.14155769279455" x2="537.0581836335955" y2="256.14155769279455" stroke="rgb(71,71,71)" stroke-opacity="1.0" stroke-width="1.0" fill="none">
        </line>
        <line x1="0.0" y1="206.82447160218135" x2="537.0581836335955" y2="206.82447160218135" stroke="rgb(71,71,71)" stroke-opacity="1.0" stroke-width="1.0" fill="none">
        </line>
        <line x1="0.0" y1="157.50738551156812" x2="537.0581836335955" y2="157.50738551156812" stroke="rgb(71,71,71)" stroke-opacity="1.0" stroke-width="1.0" fill="none">
        </line>
        <line x1="0.0" y1="108.19029942095489" x2="537.0581836335955" y2="108.19029942095489" stroke="rgb(71,71,71)" stroke-opacity="1.0" stroke-width="1.0" fill="none">
        </line>
        <line x1="0.0" y1="58.873213330341656" x2="537.0581836335955" y2="58.873213330341656" stroke="rgb(71,71,71)" stroke-opacity="1.0" stroke-width="1.0" fill="none">
        </line>
        <line x1="0.0" y1="9.556127239728426" x2="537.0581836335955" y2="9.556127239728426" stroke="rgb(71,71,71)" stroke-opacity="1.0" stroke-width="1.0" fill="none">
        </line>
      </g>
      <g transform="translate(29.941816366404606 0.0 ) ">
        <g transform="translate(0.0 305.4586437834078 ) ">
          <g transform="translate(-3.0 0.0 ) ">
            <text class="axis-text-y" text-anchor="end" dy="0.35em">
              <tspan>0</tspan>
            </text>
          </g>
        </g>
        <g transform="translate(0.0 256.14155769279455 ) ">
          <g transform="translate(-3.0 0.0 ) ">
            <text class="axis-text-y" text-anchor="end" dy="0.35em">
              <tspan>50</tspan>
            </text>
          </g>
        </g>
        <g transform="translate(0.0 206.82447160218135 ) ">
          <g transform="translate(-3.0 0.0 ) ">
            <text class="axis-text-y" text-anchor="end" dy="0.35em">
              <tspan>100</tspan>
            </text>
          </g>
        </g>
        <g transform="translate(0.0 157.50738551156812 ) ">
          <g transform="translate(-3.0 0.0 ) ">
            <text class="axis-text-y" text-anchor="end" dy="0.35em">
              <tspan>150</tspan>
            </text>
          </g>
        </g>
        <g transform="translate(0.0 108.19029942095489 ) ">
          <g transform="translate(-3.0 0.0 ) ">
            <text class="axis-text-y" text-anchor="end" dy="0.35em">
              <tspan>200</tspan>
            </text>
          </g>
        </g>
        <g transform="translate(0.0 58.873213330341656 ) ">
          <g transform="translate(-3.0 0.0 ) ">
            <text class="axis-text-y" text-anchor="end" dy="0.35em">
              <tspan>250</tspan>
            </text>
          </g>
        </g>
        <g transform="translate(0.0 9.556127239728426 ) ">
          <g transform="translate(-3.0 0.0 ) ">
            <text class="axis-text-y" text-anchor="end" dy="0.35em">
              <tspan>300</tspan>
            </text>
          </g>
        </g>
      </g>
      <g transform="translate(29.941816366404606 0.0 ) " clip-path="url(#ch6qT0b)" clip-bounds-jfx="[rect (0.0, 0.0), (537.0581836335954, 320.0)]">
        <defs>
          <clipPath id="ch6qT0b">
            <rect x="0.0" y="0.0" width="537.0581836335954" height="320.0">
            </rect>
          </clipPath>
        </defs>
        <g>
          <path d="M24.41173561970888 296.1254396621637 L24.41173561970888 296.1254396621637 L25.332933190263933 14.545454545454561 L26.254130760818988 303.96738326861527 L28.09652590192909 304.40369480427995 L29.017723472484143 300.58230787717713 L29.938921043039194 301.99656383805245 L30.860118613594246 303.4299382443928 L31.781316184149297 304.65754141627605 L33.62371132525941 305.44712787847726 L34.54490889581446 304.01069819634307 L35.46610646636951 300.2502347394209 L36.38730403692456 302.02603869325543 L37.30850160747961 300.12335619164566 L38.229699178034664 303.0374328395347 L40.07209431914477 300.43151594426706 L40.99329188969982 305.3135734510402 L42.83568703080992 301.5699391301818 L43.75688460136497 304.1230219011055 L45.599279742475076 303.11644674145856 L46.520477313030135 305.05889721705915 L47.441674883585186 303.602638699683 L49.28407002469529 303.8803630292361 L51.1264651658054 304.49296956377236 L52.9688603069155 305.0118817673993 L53.890057877470554 303.94614719836346 L54.811255448025605 299.5230851515531 L55.73245301858066 305.155569636207 L56.65365058913571 303.965712465548 L58.49604573024581 302.48798639626403 L59.41724330080086 304.00039450352875 L60.338440871355914 305.3566402295697 L61.259638441910965 303.6325386952261 L62.18083601246602 305.0437199012812 L64.02323115357612 303.7000126949595 L65.86562629468622 302.957429622252 L66.78682386524127 304.5541738013113 L68.62921900635139 303.19888321035967 L70.4716141474615 301.1984186180861 L71.39281171801655 302.45372034254825 L72.3140092885716 298.06268078708104 L73.23520685912665 303.6423091747853 L75.07760200023675 304.0546873684233 L75.9987995707918 302.4980182505866 L76.91999714134685 304.72490410406067 L78.76239228245696 304.8301563101659 L79.68358985301201 303.24887197961755 L80.60478742356706 305.15474886385516 L81.52598499412211 301.0173362625371 L82.44718256467716 302.9155993799676 L83.36838013523221 301.297500479187 L84.28957770578727 303.9498967162196 L85.21077527634232 305.19686692596565 L86.13197284689737 303.47302321531447 L87.05317041745242 304.9132523380875 L87.97436798800747 301.34419343953635 L88.89556555856252 305.02983458113215 L89.81676312911758 299.81938071230365 L90.73796069967263 304.8098844851979 L92.58035584078274 305.0002809881824 L94.42275098189285 304.7042818918015 L96.26514612300295 303.3569013495723 L97.186343693558 304.68004300577763 L98.10754126411305 301.155742254201 L99.0287388346681 303.8998480313496 L100.8711339757782 303.776829260564 L101.79233154633326 301.81840044613614 L102.71352911688831 304.82459329440337 L103.63472668744336 303.4346596067421 L104.55592425799841 304.4529274808808 L106.39831939910852 303.48883926107123 L107.31951696966357 305.3455248026448 L109.16191211077367 303.6500267418835 L111.00430725188377 304.216792487086 L112.84670239299389 302.93166909957694 L114.689097534104 300.89935580790257 L115.61029510465904 305.25402777789543 L116.5314926752141 303.28450591796997 L117.45269024576915 305.4420395845494 L119.29508538687925 304.3643549229866 L120.2162829574343 302.7831458664721 L122.0586780985444 304.17857933448573 L123.90107323965451 301.45858446429725 L125.74346838076461 304.8895353924933 L126.66466595131966 303.10795299033356 L128.50706109242978 303.82792725715353 L129.42825866298483 304.9640819173599 L131.27065380409493 304.61555904491456 L133.11304894520504 305.35254521606015 L134.0342465157601 303.1031773848158 L135.8766416568702 305.1331199370087 L136.79783922742524 300.84313702283595 L138.64023436853535 304.8887670364597 L139.5614319390904 302.90621031998836 L140.48262950964545 301.8996581409876 L141.4038270802005 303.31698248179737 L142.32502465075555 305.2915118745714 L144.16741979186565 302.58446905095906 L145.0886173624207 300.4846429696833 L146.00981493297576 302.32412424123015 L146.9310125035308 304.68615026241076 L148.7734076446409 302.51341499432056 L150.61580278575101 303.5460451256905 L151.53700035630607 304.86908655494244 L152.45819792686112 303.21247398274846 L154.30059306797122 304.8274885627589 L156.14298820908132 301.2671886878683 L157.06418577963638 303.5810621777256 L158.90658092074648 302.74957704711517 L159.82777849130153 305.04271003372907 L160.74897606185658 303.81739017237106 L162.5913712029667 301.6761146053115 L163.51256877352176 304.96800312716607 L164.43376634407682 303.17213634090405 L165.35496391463187 305.4153428915931 L167.19735905574197 303.86829398261784 L169.03975419685207 304.6598392839153 L170.88214933796218 305.11670450696056 L171.80334690851723 302.29469401236656 L172.72454447907228 304.782004055797 L173.64574204962733 300.5183868856874 L174.56693962018238 302.86001165125066 L176.40933476129248 305.2393545182193 L178.2517299024026 304.78431362205566 L180.0941250435127 302.64472699300984 L181.9365201846228 302.6602232710545 L182.85771775517784 305.11794409046087 L183.7789153257329 303.78273324343866 L185.621310466843 304.5648963159293 L187.4637056079531 303.76382086744616 L188.38490317850815 304.99747585062414 L190.22729831961826 304.0679998598172 L191.1484958901733 302.6919639169143 L192.06969346072836 304.62969832330657 L193.91208860183846 303.81128293627864 L195.75448374294857 302.5277593543513 L196.67568131350362 303.8895982960787 L197.59687888405867 302.79436496724185 L198.51807645461372 303.8891971920555 L200.36047159572382 304.7251030743275 L201.2816691662789 303.06176017585585 L203.124064307389 304.88909296612263 L204.04526187794406 301.31929320960813 L204.9664594484991 304.9105793115518 L205.88765701905416 303.4378195567978 L206.8088545896092 305.323277132633 L207.73005216016426 303.4303803308701 L208.65124973071931 302.2777268356473 L209.57244730127437 303.3530843647234 L210.49364487182942 305.09265285319964 L212.33604001293952 304.92049102084604 L213.25723758349457 301.94710988659256 L214.17843515404962 305.2518760042995 L215.09963272460467 303.6218863303004 L216.94202786571478 304.1821522839783 L218.78442300682488 300.3493338323235 L219.70562057737993 302.86273828085535 L221.54801571849003 303.2864107555613 L222.4692132890451 305.04511511122297 L224.3116084301552 304.9674286514547 L226.1540035712653 303.239663656203 L227.9963987123754 304.58730136858827 L229.8387938534855 305.20439452284097 L231.6811889945956 303.1001008165875 L232.60238656515065 301.5642201275537 L233.5235841357057 304.1069278865499 L235.3659792768158 305.1536798116103 L236.28717684737086 302.59155688867264 L237.2083744179259 304.8546088905896 L239.050769559036 303.20021513448347 L239.9719671295911 305.3550098987233 L240.89316470014614 302.39511776171645 L241.8143622707012 305.2115612637318 L242.73555984125625 302.7432914463181 L243.6567574118113 304.4786870188218 L244.57795498236635 301.38007242392945 L245.4991525529214 304.21032631004607 L246.42035012347645 305.36504705643375 L247.3415476940315 304.22564126721636 L249.1839428351416 302.46131482471844 L251.0263379762517 303.8919361284768 L251.94753554680676 305.2596568593796 L253.78993068791686 305.1386083943294 L255.63232582902697 305.3796045618304 L256.55352339958205 302.5773700763227 L257.47472097013707 304.0074320870441 L259.3171161112472 304.0312360237644 L261.1595112523573 304.17019959971765 L263.0019063934674 303.5827763409799 L263.92310396402246 302.25697380363016 L265.76549910513256 304.1799550844651 L266.6866966756876 305.39809215611604 L268.5290918167977 304.8359067822341 L269.45028938735277 302.8157176139028 L270.3714869579078 304.2997164167837 L271.29268452846287 301.8568328013647 L273.135079669573 303.4267807210188 L274.9774748106831 304.8185792726458 L275.8986723812381 301.85805148717225 L276.8198699517932 303.72121877891965 L277.7410675223482 301.4073580338434 L278.6622650929033 304.64398175979323 L280.5046602340134 302.0360938364653 L281.4258578045684 303.4053716577268 L283.2682529456785 304.70448540111295 L285.1106480867886 304.2640813584197 L286.0318456573437 302.45211088303785 L287.8742407984538 304.67850642844877 L289.7166359395639 304.25014379322556 L291.559031080674 303.49481384784997 L292.480228651229 304.54358143431034 L293.4014262217841 303.05417678413374 L294.32262379233913 304.74357053900144 L296.16501893344923 304.25018906486525 L298.00741407455934 302.51858403516604 L298.9286116451144 303.78096903601886 L300.7710067862245 304.9020991402472 L301.6922043567796 303.23509062132615 L303.5345994978897 304.9300263701748 L305.3769946389998 302.01319594774696 L306.2981922095548 305.03531353382374 L307.2193897801099 299.16105563287 L308.14058735066493 303.9720145529521 L309.98298249177503 305.1906158906482 L311.82537763288514 304.26354133159106 L313.66777277399524 303.8640889375813 L314.5889703445503 305.0750770187031 L316.4313654856604 305.24412297278735 L318.2737606267705 305.0091279342568 L320.1161557678806 303.7223402168282 L321.95855090899073 304.41950421893154 L323.80094605010083 302.8371761042649 L325.64334119121094 304.75783893763264 L326.56453876176596 301.16459443312266 L327.48573633232104 305.24650676834574 L328.40693390287606 303.5267939610473 L329.32813147343114 304.74317738023063 L330.24932904398617 302.51104310308455 L331.17052661454125 305.0601536162116 L333.01292175565135 304.9057421844063 L334.85531689676145 305.2278771031309 L336.69771203787155 302.9179420560284 L338.54010717898166 304.5452638382475 L339.46130474953674 303.1744705926878 L341.30369989064684 303.53425165271966 L342.22489746120186 302.2147210283629 L343.14609503175694 303.33619758925096 L344.98849017286705 305.1021575645708 L346.83088531397715 302.99012334099444 L347.7520828845322 305.4380506090277 L348.67328045508725 303.81585604829456 L349.5944780256423 305.2683096108121 L350.51567559619735 302.7296302372216 L352.35807073730746 304.65357131838033 L354.20046587841756 303.8581131937465 L355.1216634489726 304.874945601711 L356.9640585900827 305.3877939068972 L358.8064537311928 301.6722553942316 L359.72765130174787 304.41639224982305 L361.570046442858 304.77343780806086 L363.4124415839681 305.16874199727215 L364.3336391545231 304.0071128240992 L365.2548367250782 300.743406752651 L366.1760342956332 305.17668040725164 L368.0184294367433 302.3087677147458 L368.9396270072984 303.4048249265434 L370.7820221484085 304.67420574917963 L372.6244172895186 304.93566026941886 L373.5456148600736 303.80351268261205 L375.3880100011837 305.14123139872265 L377.2304051422938 305.27609713926785 L378.1516027128489 303.45986801840183 L379.072800283404 305.14447944101113 L379.993997853959 304.0482895647186 L380.9151954245141 305.4388121831666 L381.8363929950691 304.12477921671524 L382.7575905656242 305.4193499671193 L383.6787881361792 304.34224725712335 L384.5999857067343 303.3255009401576 L386.4423808478444 304.5366184486195 L387.3635784183994 302.78046519974646 L389.2059735595095 303.11082290639024 L390.1271711300646 305.22591184271414 L391.0483687006196 302.42351145117715 L391.9695662711747 305.43960907307934 L392.8907638417297 304.0721841555821 L394.7331589828398 304.3334598198926 L396.5755541239499 305.12645282497436 L397.496751694505 303.09641835385236 L399.3391468356151 305.22837791321535 L400.26034440617013 303.2667602049209 L402.10273954728024 304.20464323288064 L403.94513468839034 303.75741513788563 L405.78752982950044 304.2010586404514 L406.7087274000555 303.16727196005485 L408.5511225411656 304.6749068499554 L410.39351768227573 303.7593808283593 L412.23591282338583 304.59683919637575 L414.07830796449593 304.1273161669486 L414.99950553505096 305.27987305879196 L415.92070310560604 303.55821263884485 L416.8419006761611 305.3525345051054 L417.76309824671614 302.5155848247246 L418.6842958172712 304.375651656886 L420.5266909583813 302.6180268104973 L421.44788852893635 304.4941443343717 L423.29028367004645 304.94293285458417 L425.13267881115655 302.74883002988696 L426.97507395226665 304.59101235951806 L428.81746909337676 303.6344858872873 L429.73866666393184 302.42497058641663 L430.65986423448686 304.08164614914375 L432.50225937559696 302.05892648949396 L433.42345694615204 305.24175830448127 L434.34465451670707 304.20517118334016 L436.18704965781717 303.3737928906636 L437.10824722837225 305.2837617944622 L438.95064236948235 303.4290521199221 L439.8718399400374 305.4193640047812 L440.79303751059246 301.53879406066886 L441.7142350811475 304.41003321232324 L442.63543265170256 303.38609795051326 L443.5566302222576 304.92378399377964 L445.3990253633677 304.6109438374962 L447.2414205044778 300.99164871149713 L448.16261807503287 302.99809008987665 L450.00501321614297 303.6524941660068 L451.8474083572531 304.6701137730536 L453.6898034983632 304.19026798116863 L455.5321986394733 303.95100109560184 L456.45339621002836 302.44852328774795 L457.3745937805834 304.7957911279322 L458.29579135113846 302.53028975171617 L459.2169889216935 304.38156500253285 L461.0593840628036 305.3809766681741 L462.9017792039137 302.5463910097689 L463.82297677446877 304.93609934567246 L465.6653719155789 302.98050129712703 L467.507767056689 305.0918979859657 L468.428964627244 303.82815641922974 L469.3501621977991 305.1173847795684 L471.1925573389092 305.41681880118426 L472.1137549094642 303.9026104535494 L473.0349524800193 302.66570610879336 L473.9561500505743 304.824230406743 L475.7985451916844 302.58760990893285 L476.7197427622395 304.77589292333874 L478.5621379033496 304.31267496588475 L480.4045330444597 303.7021504508015 L482.2469281855698 304.77502586835715 L483.1681257561248 303.0145910811435 L485.0105208972349 305.30943463452314 L485.93171846779 303.004918379782 L486.85291603834503 304.91796586771744 L488.69531117945513 304.2274388117515 L489.6165087500102 302.856776455223 L490.53770632056523 305.3309599967299 L492.38010146167534 304.06140892193963 L494.22249660278544 305.33950390631304 L495.1436941733405 303.91240050276485 L496.9860893144506 304.67534966318857 L497.9072868850057 302.49354514484315 L498.8284844555607 304.2318915794493 L500.67087959667083 303.1535163244282 L501.5920771672259 304.6710956657297 L503.434472308336 305.03929225969864 L504.35566987889104 303.25997195184937 L506.19806502000114 305.4093061138844 L508.04046016111124 305.25413970072447 L508.9616577316663 304.13367960397363 L509.88285530222134 302.11610358274515 L510.8040528727764 304.41032406955674 L511.72525044333145 301.5420264012271 L512.6464480138866 304.380816501556 " fill="none" stroke-width="1.6500000000000001" stroke="rgb(187,187,187)" stroke-opacity="1.0">
          </path>
        </g>
      </g>
    </g>
    <g transform="translate(52.94181636640461 15.2 ) ">
      <text class="plot-title" y="0.0">
        <tspan>Frequency Domain for soc.religion.christian - Toxicity Signal</tspan>
      </text>
    </g>
    <g transform="translate(14.5 194.0 ) rotate(-90.0 ) ">
      <text class="axis-title-y" y="0.0" text-anchor="middle">
        <tspan>Amplitude</tspan>
      </text>
    </g>
    <g transform="translate(321.4709081832023 391.5 ) ">
      <text class="axis-title-x" y="0.0" text-anchor="middle">
        <tspan>Frequency</tspan>
      </text>
    </g>
    <path fill="rgb(0,0,0)" fill-opacity="0.0" stroke="rgb(187,187,187)" stroke-opacity="1.0" stroke-width="0.0" d="M0.0 0.0 L0.0 400.0 L600.0 400.0 L600.0 0.0 Z">
    </path>
  </g>
  <g id="dAMVX62">
  </g>
</svg>