<svg xmlns="http://www.w3.org/2000/svg" xmlns:xlink="http://www.w3.org/1999/xlink" class="plt-container" width="600.0" height="400.0">
  <style type="text/css">
  .plt-container {
   font-family: Lucida Grande, sans-serif;
   user-select: none;
   -webkit-user-select: none;
   -moz-user-select: none;
   -ms-user-select: none;
}
text {
   text-rendering: optimizeLegibility;
}
#ptDMyjL .plot-title {
   fill: #bbbbbb;
   font-family: Lucida Grande, sans-serif;
   font-size: 16.0px;
   font-weight: normal;
   font-style: normal;   
}
#ptDMyjL .plot-subtitle {
   fill: #bbbbbb;
   font-family: Lucida Grande, sans-serif;
   font-size: 15.0px;
   font-weight: normal;
   font-style: normal;   
}
#ptDMyjL .plot-caption {
   fill: #bbbbbb;
   font-family: Lucida Grande, sans-serif;
   font-size: 13.0px;
   font-weight: normal;
   font-style: normal;   
}
#ptDMyjL .legend-title {
   fill: #bbbbbb;
   font-family: Lucida Grande, sans-serif;
   font-size: 15.0px;
   font-weight: normal;
   font-style: normal;   
}
#ptDMyjL .legend-item {
   fill: #bbbbbb;
   font-family: Lucida Grande, sans-serif;
   font-size: 13.0px;
   font-weight: normal;
   font-style: normal;   
}
#ptDMyjL .axis-title-x {
   fill: #bbbbbb;
   font-family: Lucida Grande, sans-serif;
   font-size: 15.0px;
   font-weight: normal;
   font-style: normal;   
}
#ptDMyjL .axis-text-x {
   fill: #bbbbbb;
   font-family: Lucida Grande, sans-serif;
   font-size: 13.0px;
   font-weight: normal;
   font-style: normal;   
}
#dp3YmDA .axis-tooltip-text-x {
   fill: #303030;
   font-family: Lucida Grande, sans-serif;
   font-size: 13.0px;
   font-weight: normal;
   font-style: normal;   
}
#ptDMyjL .axis-title-y {
   fill: #bbbbbb;
   font-family: Lucida Grande, sans-serif;
   font-size: 15.0px;
   font-weight: normal;
   font-style: normal;   
}
#ptDMyjL .axis-text-y {
   fill: #bbbbbb;
   font-family: Lucida Grande, sans-serif;
   font-size: 13.0px;
   font-weight: normal;
   font-style: normal;   
}
#dp3YmDA .axis-tooltip-text-y {
   fill: #303030;
   font-family: Lucida Grande, sans-serif;
   font-size: 13.0px;
   font-weight: normal;
   font-style: normal;   
}
#ptDMyjL .facet-strip-text-x {
   fill: #bbbbbb;
   font-family: Lucida Grande, sans-serif;
   font-size: 13.0px;
   font-weight: normal;
   font-style: normal;   
}
#ptDMyjL .facet-strip-text-y {
   fill: #bbbbbb;
   font-family: Lucida Grande, sans-serif;
   font-size: 13.0px;
   font-weight: normal;
   font-style: normal;   
}
#dp3YmDA .tooltip-text {
   fill: #bbbbbb;
   font-family: Lucida Grande, sans-serif;
   font-size: 13.0px;
   font-weight: normal;
   font-style: normal;   
}
#dp3YmDA .tooltip-title {
   fill: #bbbbbb;
   font-family: Lucida Grande, sans-serif;
   font-size: 13.0px;
   font-weight: bold;
   font-style: normal;   
}
#dp3YmDA .tooltip-label {
   fill: #bbbbbb;
   font-family: Lucida Grande, sans-serif;
   font-size: 13.0px;
   font-weight: bold;
   font-style: normal;   
}

  </style>
  <g id="ptDMyjL">
    <path fill-rule="evenodd" fill="rgb(48,48,48)" fill-opacity="1.0" d="M0.0 0.0 L0.0 400.0 L600.0 400.0 L600.0 0.0 Z">
    </path>
    <g transform="translate(23.0 34.0 ) ">
      <g transform="translate(29.941816366404606 0.0 ) ">
        <line x1="23.49053804915383" y1="320.0" x2="23.49053804915383" y2="0.0" stroke="rgb(71,71,71)" stroke-opacity="1.0" stroke-width="1.0" fill="none">
        </line>
        <line x1="115.61029510465904" y1="320.0" x2="115.61029510465904" y2="0.0" stroke="rgb(71,71,71)" stroke-opacity="1.0" stroke-width="1.0" fill="none">
        </line>
        <line x1="207.73005216016426" y1="320.0" x2="207.73005216016426" y2="0.0" stroke="rgb(71,71,71)" stroke-opacity="1.0" stroke-width="1.0" fill="none">
        </line>
        <line x1="299.8498092156695" y1="320.0" x2="299.8498092156695" y2="0.0" stroke="rgb(71,71,71)" stroke-opacity="1.0" stroke-width="1.0" fill="none">
        </line>
        <line x1="391.9695662711747" y1="320.0" x2="391.9695662711747" y2="0.0" stroke="rgb(71,71,71)" stroke-opacity="1.0" stroke-width="1.0" fill="none">
        </line>
        <line x1="484.0893233266799" y1="320.0" x2="484.0893233266799" y2="0.0" stroke="rgb(71,71,71)" stroke-opacity="1.0" stroke-width="1.0" fill="none">
        </line>
      </g>
      <g transform="translate(29.941816366404606 320.0 ) ">
        <g transform="translate(23.49053804915383 0.0 ) ">
          <line stroke-width="1.0" stroke="rgb(187,187,187)" stroke-opacity="1.0" x2="0.0" y2="4.0">
          </line>
          <g transform="translate(0.0 7.0 ) ">
            <text class="axis-text-x" text-anchor="middle" dy="0.7em">
              <tspan>0</tspan>
            </text>
          </g>
        </g>
        <g transform="translate(115.61029510465904 0.0 ) ">
          <line stroke-width="1.0" stroke="rgb(187,187,187)" stroke-opacity="1.0" x2="0.0" y2="4.0">
          </line>
          <g transform="translate(0.0 7.0 ) ">
            <text class="axis-text-x" text-anchor="middle" dy="0.7em">
              <tspan>100</tspan>
            </text>
          </g>
        </g>
        <g transform="translate(207.73005216016426 0.0 ) ">
          <line stroke-width="1.0" stroke="rgb(187,187,187)" stroke-opacity="1.0" x2="0.0" y2="4.0">
          </line>
          <g transform="translate(0.0 7.0 ) ">
            <text class="axis-text-x" text-anchor="middle" dy="0.7em">
              <tspan>200</tspan>
            </text>
          </g>
        </g>
        <g transform="translate(299.8498092156695 0.0 ) ">
          <line stroke-width="1.0" stroke="rgb(187,187,187)" stroke-opacity="1.0" x2="0.0" y2="4.0">
          </line>
          <g transform="translate(0.0 7.0 ) ">
            <text class="axis-text-x" text-anchor="middle" dy="0.7em">
              <tspan>300</tspan>
            </text>
          </g>
        </g>
        <g transform="translate(391.9695662711747 0.0 ) ">
          <line stroke-width="1.0" stroke="rgb(187,187,187)" stroke-opacity="1.0" x2="0.0" y2="4.0">
          </line>
          <g transform="translate(0.0 7.0 ) ">
            <text class="axis-text-x" text-anchor="middle" dy="0.7em">
              <tspan>400</tspan>
            </text>
          </g>
        </g>
        <g transform="translate(484.0893233266799 0.0 ) ">
          <line stroke-width="1.0" stroke="rgb(187,187,187)" stroke-opacity="1.0" x2="0.0" y2="4.0">
          </line>
          <g transform="translate(0.0 7.0 ) ">
            <text class="axis-text-x" text-anchor="middle" dy="0.7em">
              <tspan>500</tspan>
            </text>
          </g>
        </g>
        <line x1="0.0" y1="0.0" x2="537.0581836335954" y2="0.0" stroke-width="1.0" stroke="rgb(187,187,187)" stroke-opacity="1.0">
        </line>
      </g>
      <g transform="translate(29.941816366404606 0.0 ) ">
        <line x1="0.0" y1="305.98369276139783" x2="537.0581836335955" y2="305.98369276139783" stroke="rgb(71,71,71)" stroke-opacity="1.0" stroke-width="1.0" fill="none">
        </line>
        <line x1="0.0" y1="256.59983010329813" x2="537.0581836335955" y2="256.59983010329813" stroke="rgb(71,71,71)" stroke-opacity="1.0" stroke-width="1.0" fill="none">
        </line>
        <line x1="0.0" y1="207.21596744519843" x2="537.0581836335955" y2="207.21596744519843" stroke="rgb(71,71,71)" stroke-opacity="1.0" stroke-width="1.0" fill="none">
        </line>
        <line x1="0.0" y1="157.8321047870987" x2="537.0581836335955" y2="157.8321047870987" stroke="rgb(71,71,71)" stroke-opacity="1.0" stroke-width="1.0" fill="none">
        </line>
        <line x1="0.0" y1="108.448242128999" x2="537.0581836335955" y2="108.448242128999" stroke="rgb(71,71,71)" stroke-opacity="1.0" stroke-width="1.0" fill="none">
        </line>
        <line x1="0.0" y1="59.0643794708993" x2="537.0581836335955" y2="59.0643794708993" stroke="rgb(71,71,71)" stroke-opacity="1.0" stroke-width="1.0" fill="none">
        </line>
        <line x1="0.0" y1="9.680516812799567" x2="537.0581836335955" y2="9.680516812799567" stroke="rgb(71,71,71)" stroke-opacity="1.0" stroke-width="1.0" fill="none">
        </line>
      </g>
      <g transform="translate(29.941816366404606 0.0 ) ">
        <g transform="translate(0.0 305.98369276139783 ) ">
          <g transform="translate(-3.0 0.0 ) ">
            <text class="axis-text-y" text-anchor="end" dy="0.35em">
              <tspan>0</tspan>
            </text>
          </g>
        </g>
        <g transform="translate(0.0 256.59983010329813 ) ">
          <g transform="translate(-3.0 0.0 ) ">
            <text class="axis-text-y" text-anchor="end" dy="0.35em">
              <tspan>50</tspan>
            </text>
          </g>
        </g>
        <g transform="translate(0.0 207.21596744519843 ) ">
          <g transform="translate(-3.0 0.0 ) ">
            <text class="axis-text-y" text-anchor="end" dy="0.35em">
              <tspan>100</tspan>
            </text>
          </g>
        </g>
        <g transform="translate(0.0 157.8321047870987 ) ">
          <g transform="translate(-3.0 0.0 ) ">
            <text class="axis-text-y" text-anchor="end" dy="0.35em">
              <tspan>150</tspan>
            </text>
          </g>
        </g>
        <g transform="translate(0.0 108.448242128999 ) ">
          <g transform="translate(-3.0 0.0 ) ">
            <text class="axis-text-y" text-anchor="end" dy="0.35em">
              <tspan>200</tspan>
            </text>
          </g>
        </g>
        <g transform="translate(0.0 59.0643794708993 ) ">
          <g transform="translate(-3.0 0.0 ) ">
            <text class="axis-text-y" text-anchor="end" dy="0.35em">
              <tspan>250</tspan>
            </text>
          </g>
        </g>
        <g transform="translate(0.0 9.680516812799567 ) ">
          <g transform="translate(-3.0 0.0 ) ">
            <text class="axis-text-y" text-anchor="end" dy="0.35em">
              <tspan>300</tspan>
            </text>
          </g>
        </g>
      </g>
      <g transform="translate(29.941816366404606 0.0 ) " clip-path="url(#c5K3sHQ)" clip-bounds-jfx="[rect (0.0, 0.0), (537.0581836335954, 320.0)]">
        <defs>
          <clipPath id="c5K3sHQ">
            <rect x="0.0" y="0.0" width="537.0581836335954" height="320.0">
            </rect>
          </clipPath>
        </defs>
        <g>
          <path d="M24.41173561970888 14.545454545454561 L24.41173561970888 14.545454545454561 L25.332933190263933 290.66428947258174 L27.17532833137404 288.92699451968065 L28.09652590192909 292.3297056815882 L29.017723472484143 294.21697171287593 L30.860118613594246 297.2275311029789 L31.781316184149297 290.97515395686855 L32.702513754704356 293.80055942417624 L33.62371132525941 201.84006879955632 L34.54490889581446 292.8991943541046 L36.38730403692456 289.938447704025 L37.30850160747961 295.06743331277886 L38.229699178034664 287.1652698365796 L39.150896748589716 95.76118986298601 L40.07209431914477 52.24875555877563 L40.99329188969982 199.736664813515 L41.91448946025487 296.67805399114746 L42.83568703080992 280.70810588778494 L43.75688460136497 292.2192823291201 L44.678082171920025 296.6780539911643 L45.599279742475076 248.75622714432504 L46.520477313030135 294.06756703199244 L48.36287245414024 294.0675670294174 L50.20526759525034 294.0675670319877 L51.1264651658054 288.7795196835853 L52.9688603069155 304.54458569788306 L53.890057877470554 280.0074849029795 L54.811255448025605 291.1241316254288 L55.73245301858066 300.6420105395676 L56.65365058913571 292.20759935143286 L58.49604573024581 289.5656946359859 L59.41724330080086 261.3632495970768 L60.338440871355914 290.5285044324223 L61.259638441910965 294.7987664410494 L62.18083601246602 289.345286086673 L64.02323115357612 288.5298244395004 L65.86562629468622 273.77676011923705 L66.78682386524127 295.66609799653656 L67.70802143579633 272.87495137188034 L68.62921900635139 300.2522787691237 L69.55041657690644 297.8461998908636 L70.4716141474615 288.702002172316 L71.39281171801655 291.0297278620949 L72.3140092885716 292.04939811982877 L73.23520685912665 294.61455920994206 L74.1564044296817 286.7011953346274 L75.07760200023675 299.9827955917986 L75.9987995707918 295.44189262214246 L77.8411947119019 272.9927582956798 L78.76239228245696 296.5592897788311 L79.68358985301201 261.3513253240627 L81.52598499412211 304.9477833715976 L82.44718256467716 296.84783186681693 L83.36838013523221 292.99931586445166 L84.28957770578727 291.0347421191827 L85.21077527634232 297.72798738250776 L86.13197284689737 294.9483320872896 L87.05317041745242 296.6378512484449 L87.97436798800747 294.0753114167332 L88.89556555856252 293.06609053462137 L90.73796069967263 293.0777836322992 L91.65915827022768 301.9885093413785 L92.58035584078274 291.7441014753817 L93.5015534113378 301.99495714647065 L94.42275098189285 296.8460199922896 L96.26514612300295 281.8336260850894 L98.10754126411305 276.28326033551787 L99.0287388346681 277.8583675011426 L99.94993640522316 290.9894296910152 L100.8711339757782 293.3636386427381 L102.71352911688831 296.8154933812215 L104.55592425799841 293.12726709443876 L105.47712182855346 298.46862440489224 L106.39831939910852 293.3785351371378 L107.31951696966357 296.0946865333867 L108.24071454021862 291.9766742047876 L109.16191211077367 296.45901644795606 L110.08310968132872 293.36363864271016 L111.00430725188377 281.22808664705155 L112.84670239299389 237.03105283547444 L114.689097534104 270.0611318233403 L115.61029510465904 288.8889989564324 L116.5314926752141 295.5807097423351 L117.45269024576915 293.14427938307193 L118.3738878163242 289.129142688383 L120.2162829574343 292.9061273649086 L122.0586780985444 293.68805573647455 L123.90107323965451 291.59868602202584 L124.82227081020956 295.3421269907487 L125.74346838076461 298.02941606503964 L126.66466595131966 291.8603648110148 L127.58586352187471 268.65887508347373 L129.42825866298483 293.18244051710855 L130.34945623353988 296.0849676469237 L131.27065380409493 263.90209052801725 L132.19185137464999 289.39853735506387 L134.0342465157601 291.6536386520508 L134.95544408631514 296.9420736782239 L135.8766416568702 293.41727634535806 L136.79783922742524 298.4548911372711 L137.7190367979803 245.8749576378437 L139.5614319390904 294.79022971608833 L141.4038270802005 294.79022971609226 L143.2462222213106 296.65960694747474 L144.16741979186565 293.29553445092097 L145.0886173624207 295.25170058515766 L146.00981493297576 293.30882191982704 L146.9310125035308 291.8161416217078 L147.85221007408586 294.7902297160896 L149.69460521519596 294.79022971624084 L151.53700035630607 294.7902297160985 L152.45819792686112 300.59104118241453 L153.37939549741617 303.01098043564787 L154.30059306797122 284.24546580875307 L155.22179063852627 300.0854077552774 L156.14298820908132 290.58369012191736 L157.06418577963638 292.27382294003905 L157.98538335019143 295.47922614770886 L158.90658092074648 289.34483486734547 L159.82777849130153 295.16611032500333 L161.67017363241166 291.4103538906215 L163.51256877352176 294.19388028140236 L164.43376634407682 295.2794673110715 L166.27616148518692 292.9210970082141 L167.19735905574197 295.4718979097389 L168.11855662629702 290.76726711487186 L169.03975419685207 294.6743325497676 L170.88214933796218 295.1661103250184 L171.80334690851723 289.34486456874436 L172.72454447907228 301.1466488272042 L173.64574204962733 285.16660593668814 L175.48813719073743 273.8288218703218 L176.40933476129248 300.6764335040744 L177.33053233184754 295.59445301336336 L178.2517299024026 294.0508729103174 L180.0941250435127 294.0449305030854 L181.9365201846228 294.19299761352335 L182.85771775517784 292.20197035365277 L184.70011289628795 295.55607910105607 L186.54250803739805 294.044094415624 L187.4637056079531 292.6236076412909 L188.38490317850815 305.207115094379 L189.3061007490632 292.8331672377789 L190.22729831961826 291.69716381601575 L191.1484958901733 294.0905473696746 L192.9908910312834 294.0117865371376 L194.8332861723935 292.3795238800683 L195.75448374294857 294.9276809796928 L196.67568131350362 256.1375382209766 L198.51807645461372 253.0955244578913 L200.36047159572382 293.8212681817823 L202.20286673683395 293.8212682042316 L203.124064307389 291.4351600040797 L204.04526187794406 295.5179700345998 L204.9664594484991 292.60139943326067 L205.88765701905416 293.82126820424384 L207.73005216016426 293.82126820438685 L208.65124973071931 296.248268020332 L209.57244730127437 304.0716800738707 L210.49364487182942 272.14876770889504 L211.41484244238447 294.49789279677657 L212.33604001293952 296.94830545329813 L214.17843515404962 296.96198099145363 L215.09963272460467 294.8177798683361 L216.02083029515973 296.9600503458838 L217.86322543626983 294.8177798683361 L218.78442300682488 296.6388851849118 L219.70562057737993 294.2897780022 L220.62681814793498 292.2528857224737 L221.54801571849003 293.4795868786258 L222.4692132890451 296.9533574505018 L223.39041085960014 293.8700234348405 L224.3116084301552 296.94348120668474 L226.1540035712653 297.40920142814065 L227.07520114182034 294.50937154468687 L227.9963987123754 259.62927100042305 L228.91759628293045 283.66697195321063 L230.75999142404055 290.3303374217239 L232.60238656515065 291.9097337103209 L233.5235841357057 294.74849898497393 L234.44478170626076 293.3811631493941 L235.3659792768158 295.81838329541927 L236.28717684737086 292.3672178339765 L237.2083744179259 290.2317182182727 L238.12957198848096 288.7979052190301 L239.050769559036 287.0433303585583 L239.9719671295911 294.5979442369365 L240.89316470014614 301.91705117828195 L241.8143622707012 289.5264369980699 L243.6567574118113 302.44612027502495 L244.57795498236635 292.3022654240168 L245.4991525529214 299.0123288253017 L246.42035012347645 282.0582988582838 L247.3415476940315 278.57553527084553 L248.26274526458656 290.41873189538717 L249.1839428351416 293.2607038881972 L251.0263379762517 294.0477396179429 L251.94753554680676 290.58196551550816 L252.8687331173618 288.2518308650949 L253.78993068791686 293.0459722568099 L254.71112825847192 291.59957021708266 L256.55352339958205 294.04773961803323 L257.47472097013707 292.2808781203965 L259.3171161112472 291.0510027287319 L260.23831368180225 294.0477396180567 L262.08070882291236 294.04773961833934 L263.92310396402246 276.0049606358647 L264.8443015345775 300.3910649327106 L265.76549910513256 279.8574960714677 L266.6866966756876 287.75838521928665 L267.60789424624267 297.29374351700324 L268.5290918167977 292.02694974736175 L269.45028938735277 304.3209429791467 L270.3714869579078 297.70263465845153 L271.29268452846287 288.16323263473123 L272.2138820990179 294.54942300953 L273.135079669573 292.2527203729915 L274.056277240128 298.7710737995484 L274.9774748106831 293.3920791061478 L276.8198699517932 295.050515766073 L277.7410675223482 293.0204109268116 L279.5834626634583 299.0240683696477 L280.5046602340134 287.77830753172134 L281.4258578045684 285.30136380818385 L282.3470553751235 286.40448886887293 L283.2682529456785 290.0102828471311 L284.1894505162336 286.14227700063446 L285.1106480867886 304.4195347840017 L286.0318456573437 286.09214806953617 L286.9530432278987 295.9090684401556 L287.8742407984538 286.6839471230573 L288.7954383690088 298.75076063787424 L289.7166359395639 289.12097936152827 L290.6378335101189 295.91941924422736 L292.480228651229 289.5113055071253 L293.4014262217841 286.1187971060727 L294.32262379233913 292.27473619129904 L295.2438213628942 289.0389619949484 L296.16501893344923 294.28169604200593 L297.0862165040043 292.3169257782764 L298.00741407455934 291.2355674122373 L299.8498092156695 286.62584687659256 L300.7710067862245 295.9297894604511 L301.6922043567796 296.9589205456568 L302.6134019273346 289.74808813056825 L303.5345994978897 295.43837280592913 L305.3769946389998 294.5121221078223 L307.2193897801099 288.3304612981323 L308.14058735066493 294.8031087343134 L309.06178492122 293.2318336502755 L309.98298249177503 295.4383727353448 L310.9041800623301 296.7484425397169 L311.82537763288514 294.89038001157525 L312.7465752034402 292.79952932510383 L313.66777277399524 294.71106460518416 L314.5889703445503 290.53003733234317 L315.51016791510534 295.4383728058741 L317.35256305621544 295.43837281015254 L319.19495819732555 300.6580096758838 L320.1161557678806 292.58926717319304 L321.95855090899073 291.4904565350525 L322.87974847954575 295.2580112736018 L323.80094605010083 289.2711439370915 L324.72214362065586 293.0889902714875 L325.64334119121094 294.4135882041929 L326.56453876176596 291.26386811910237 L328.40693390287606 295.1220663508118 L329.32813147343114 291.63147749187334 L330.24932904398617 294.58577146468554 L331.17052661454125 293.08738109231257 L333.01292175565135 293.08738108455356 L333.93411932620637 284.03938116093093 L334.85531689676145 298.6674189284037 L336.69771203787155 298.9047430867838 L337.6189096084266 290.15685165513315 L338.54010717898166 294.372589907277 L339.46130474953674 292.59663667265033 L340.38250232009176 296.3709640683049 L341.30369989064684 293.99677345071404 L343.14609503175694 292.4253943563485 L344.06729260231197 293.44227161522826 L345.90968774342207 297.00067098643353 L346.83088531397715 287.7825374606812 L347.7520828845322 300.47370821225 L348.67328045508725 293.81781625613587 L349.5944780256423 292.02542145191376 L351.4368731667524 292.0254214520204 L352.35807073730746 294.1632724288601 L353.2792683078625 292.0254214520205 L354.20046587841756 294.452616894884 L355.1216634489726 291.5471607396652 L356.04286101952766 295.6579599587757 L356.9640585900827 287.7281200448987 L357.88525616063777 302.6838201394925 L358.8064537311928 295.9734696332747 L359.72765130174787 290.69276782371054 L360.6488488723029 282.74809013890354 L361.570046442858 291.05373122590925 L362.491244013413 298.0480966160128 L363.4124415839681 290.1949717194239 L364.3336391545231 292.19904778137425 L365.2548367250782 295.4017915090687 L366.1760342956332 296.9584697908811 L368.0184294367433 294.58539544461223 L368.9396270072984 290.8536452261789 L369.8608245778534 289.85021042545924 L370.7820221484085 293.27551664021087 L371.7032197189635 296.9584715544801 L373.5456148600736 284.54400870386684 L374.4668124306287 296.05703961623 L375.3880100011837 292.8809900548762 L376.3092075717388 289.9595278387793 L377.2304051422938 295.7529602357622 L378.1516027128489 294.1668879874329 L379.993997853959 294.16688798744633 L380.9151954245141 304.6526820318533 L381.8363929950691 292.60774874032074 L382.7575905656242 294.14184299419225 L384.5999857067343 295.78599021382723 L385.5211832772893 293.5144101925133 L387.3635784183994 292.82695231495825 L388.2847759889545 282.8655203054525 L389.2059735595095 293.1252972324087 L390.1271711300646 290.1526791422367 L391.0483687006196 293.5144101925132 L391.9695662711747 296.55655021008243 L392.8907638417297 298.57186953090076 L393.8119614122848 289.28020136179225 L394.7331589828398 281.5327953992454 L395.6543565533949 292.39666592634836 L396.5755541239499 295.0654447821877 L397.496751694505 288.79055117092065 L398.41794926506003 295.4554791772332 L400.26034440617013 298.39190267095705 L401.1815419767252 293.7308028048269 L402.10273954728024 288.4136168496899 L403.0239371178353 294.18982912306603 L403.94513468839034 287.3942684841409 L404.8663322589454 279.0804218115673 L405.78752982950044 289.8359667265541 L406.7087274000555 291.8404764012994 L407.62992497061055 303.1559045288676 L408.5511225411656 292.5704364082902 L409.47232011172065 294.0268670790699 L411.31471525283075 301.99889677099884 L412.23591282338583 294.41978550399045 L413.15711039394085 296.6000202623301 L414.07830796449593 292.8387274020685 L414.99950553505096 295.66320158438 L415.92070310560604 297.33661583015135 L417.76309824671614 293.85080780729595 L419.60549338782624 294.89493164728856 L421.44788852893635 293.43378406312394 L423.29028367004645 289.806778813029 L424.21148124060153 305.45454545454544 L425.13267881115655 302.78053435641493 L426.05387638171163 292.79607349785215 L427.89627152282173 285.9700460167191 L428.81746909337676 299.8814616441428 L429.73866666393184 294.104059209807 L430.65986423448686 301.88602681832475 L431.58106180504194 293.0393862820009 L432.50225937559696 290.7979320223649 L433.42345694615204 292.7284891916924 L434.34465451670707 302.49205493723855 L435.26585208726215 300.1605437539714 L436.18704965781717 295.44873174998355 L437.10824722837225 286.96790155736875 L438.0294447989273 292.85139104954567 L438.95064236948235 287.94504006022214 L439.8718399400374 293.0199140854717 L441.7142350811475 290.03009808522836 L443.5566302222576 294.943336255326 L444.47782779281266 288.7329944403346 L445.3990253633677 293.6351365704944 L446.32022293392276 286.0832201223533 L447.2414205044778 305.3930754383179 L448.16261807503287 289.32359048475024 L449.0838156455879 294.35348230313735 L450.00501321614297 297.8466312540083 L450.926210786698 294.6741252523092 L452.7686059278081 292.6505039417964 L453.6898034983632 294.6741250106625 L455.5321986394733 297.3698746797685 L456.45339621002836 299.0074182074125 L457.3745937805834 303.17730964923464 L458.29579135113846 293.2207611601361 L459.2169889216935 291.1650769982697 L460.13818649224856 292.7054784584474 L461.0593840628036 296.1372403361026 L462.9017792039137 293.21193546020567 L464.7441743450238 285.47593166816694 L465.6653719155789 292.3394316270075 L466.5865694861339 296.1092548121796 L467.507767056689 297.1635793700666 L468.428964627244 293.6874602737747 L469.3501621977991 290.3570376820848 L471.1925573389092 292.8865377049244 L472.1137549094642 295.4294884351282 L473.9561500505743 291.08104884239685 L474.8773476211294 296.6758733684672 L475.7985451916844 283.63299546664945 L476.7197427622395 293.8426451024704 L477.6409403327945 291.3100001441932 L478.5621379033496 295.4227280461505 L479.4833354739046 289.067324601603 L481.3257306150147 293.87530308456724 L482.2469281855698 298.2425830473081 L483.1681257561248 294.4357708406914 L484.0893233266799 292.65158661761006 L485.0105208972349 290.2265260031186 L485.93171846779 302.78084470137713 L486.85291603834503 303.92704796189355 L487.7741136089001 293.79592870131336 L489.6165087500102 295.00403251088545 L491.4589038911203 294.93095999516436 L493.3012990322304 296.14492975426924 L495.1436941733405 290.9351643562249 L496.0648917438956 293.7051661470807 L497.9072868850057 288.67338507450523 L498.8284844555607 294.29911710674713 L500.67087959667083 294.95776641034706 L501.5920771672259 291.98724459985505 L502.51327473778093 297.05630309257515 L503.434472308336 292.6630730268976 L504.35566987889104 295.3474805228144 L506.19806502000114 294.3895889982631 L507.1192625905562 296.05771720464116 L508.04046016111124 293.1560605356225 L508.9616577316663 295.0150263050314 L510.8040528727764 296.03853390122373 L511.72525044333145 290.32375178167115 L512.6464480138866 292.8255307477066 " fill="none" stroke-width="1.6500000000000001" stroke="rgb(187,187,187)" stroke-opacity="1.0">
          </path>
        </g>
      </g>
    </g>
    <g transform="translate(52.94181636640461 15.2 ) ">
      <text class="plot-title" y="0.0">
        <tspan>Frequency Domain for soc.religion.christian - Toxicity Signal</tspan>
      </text>
    </g>
    <g transform="translate(14.5 194.0 ) rotate(-90.0 ) ">
      <text class="axis-title-y" y="0.0" text-anchor="middle">
        <tspan>Amplitude</tspan>
      </text>
    </g>
    <g transform="translate(321.4709081832023 391.5 ) ">
      <text class="axis-title-x" y="0.0" text-anchor="middle">
        <tspan>Frequency</tspan>
      </text>
    </g>
    <path fill="rgb(0,0,0)" fill-opacity="0.0" stroke="rgb(187,187,187)" stroke-opacity="1.0" stroke-width="0.0" d="M0.0 0.0 L0.0 400.0 L600.0 400.0 L600.0 0.0 Z">
    </path>
  </g>
  <g id="dp3YmDA">
  </g>
</svg>