<svg xmlns="http://www.w3.org/2000/svg" xmlns:xlink="http://www.w3.org/1999/xlink" class="plt-container" width="600.0" height="400.0">
  <style type="text/css">
  .plt-container {
   font-family: Lucida Grande, sans-serif;
   user-select: none;
   -webkit-user-select: none;
   -moz-user-select: none;
   -ms-user-select: none;
}
text {
   text-rendering: optimizeLegibility;
}
#pMcwROX .plot-title {
   fill: #bbbbbb;
   font-family: Lucida Grande, sans-serif;
   font-size: 16.0px;
   font-weight: normal;
   font-style: normal;   
}
#pMcwROX .plot-subtitle {
   fill: #bbbbbb;
   font-family: Lucida Grande, sans-serif;
   font-size: 15.0px;
   font-weight: normal;
   font-style: normal;   
}
#pMcwROX .plot-caption {
   fill: #bbbbbb;
   font-family: Lucida Grande, sans-serif;
   font-size: 13.0px;
   font-weight: normal;
   font-style: normal;   
}
#pMcwROX .legend-title {
   fill: #bbbbbb;
   font-family: Lucida Grande, sans-serif;
   font-size: 15.0px;
   font-weight: normal;
   font-style: normal;   
}
#pMcwROX .legend-item {
   fill: #bbbbbb;
   font-family: Lucida Grande, sans-serif;
   font-size: 13.0px;
   font-weight: normal;
   font-style: normal;   
}
#pMcwROX .axis-title-x {
   fill: #bbbbbb;
   font-family: Lucida Grande, sans-serif;
   font-size: 15.0px;
   font-weight: normal;
   font-style: normal;   
}
#pMcwROX .axis-text-x {
   fill: #bbbbbb;
   font-family: Lucida Grande, sans-serif;
   font-size: 13.0px;
   font-weight: normal;
   font-style: normal;   
}
#drpjQYm .axis-tooltip-text-x {
   fill: #303030;
   font-family: Lucida Grande, sans-serif;
   font-size: 13.0px;
   font-weight: normal;
   font-style: normal;   
}
#pMcwROX .axis-title-y {
   fill: #bbbbbb;
   font-family: Lucida Grande, sans-serif;
   font-size: 15.0px;
   font-weight: normal;
   font-style: normal;   
}
#pMcwROX .axis-text-y {
   fill: #bbbbbb;
   font-family: Lucida Grande, sans-serif;
   font-size: 13.0px;
   font-weight: normal;
   font-style: normal;   
}
#drpjQYm .axis-tooltip-text-y {
   fill: #303030;
   font-family: Lucida Grande, sans-serif;
   font-size: 13.0px;
   font-weight: normal;
   font-style: normal;   
}
#pMcwROX .facet-strip-text-x {
   fill: #bbbbbb;
   font-family: Lucida Grande, sans-serif;
   font-size: 13.0px;
   font-weight: normal;
   font-style: normal;   
}
#pMcwROX .facet-strip-text-y {
   fill: #bbbbbb;
   font-family: Lucida Grande, sans-serif;
   font-size: 13.0px;
   font-weight: normal;
   font-style: normal;   
}
#drpjQYm .tooltip-text {
   fill: #bbbbbb;
   font-family: Lucida Grande, sans-serif;
   font-size: 13.0px;
   font-weight: normal;
   font-style: normal;   
}
#drpjQYm .tooltip-title {
   fill: #bbbbbb;
   font-family: Lucida Grande, sans-serif;
   font-size: 13.0px;
   font-weight: bold;
   font-style: normal;   
}
#drpjQYm .tooltip-label {
   fill: #bbbbbb;
   font-family: Lucida Grande, sans-serif;
   font-size: 13.0px;
   font-weight: bold;
   font-style: normal;   
}

  </style>
  <g id="pMcwROX">
    <path fill-rule="evenodd" fill="rgb(48,48,48)" fill-opacity="1.0" d="M0.0 0.0 L0.0 400.0 L600.0 400.0 L600.0 0.0 Z">
    </path>
    <g transform="translate(23.0 34.0 ) ">
      <g transform="translate(29.941816366404606 0.0 ) ">
        <line x1="23.30462742833886" y1="320.0" x2="23.30462742833886" y2="-5.684341886080801E-14" stroke="rgb(71,71,71)" stroke-opacity="1.0" stroke-width="1.0" fill="none">
        </line>
        <line x1="78.66003699683972" y1="320.0" x2="78.66003699683972" y2="-5.684341886080801E-14" stroke="rgb(71,71,71)" stroke-opacity="1.0" stroke-width="1.0" fill="none">
        </line>
        <line x1="134.0154465653406" y1="320.0" x2="134.0154465653406" y2="-5.684341886080801E-14" stroke="rgb(71,71,71)" stroke-opacity="1.0" stroke-width="1.0" fill="none">
        </line>
        <line x1="189.37085613384141" y1="320.0" x2="189.37085613384141" y2="-5.684341886080801E-14" stroke="rgb(71,71,71)" stroke-opacity="1.0" stroke-width="1.0" fill="none">
        </line>
        <line x1="244.7262657023423" y1="320.0" x2="244.7262657023423" y2="-5.684341886080801E-14" stroke="rgb(71,71,71)" stroke-opacity="1.0" stroke-width="1.0" fill="none">
        </line>
        <line x1="300.0816752708431" y1="320.0" x2="300.0816752708431" y2="-5.684341886080801E-14" stroke="rgb(71,71,71)" stroke-opacity="1.0" stroke-width="1.0" fill="none">
        </line>
        <line x1="355.437084839344" y1="320.0" x2="355.437084839344" y2="-5.684341886080801E-14" stroke="rgb(71,71,71)" stroke-opacity="1.0" stroke-width="1.0" fill="none">
        </line>
        <line x1="410.79249440784486" y1="320.0" x2="410.79249440784486" y2="-5.684341886080801E-14" stroke="rgb(71,71,71)" stroke-opacity="1.0" stroke-width="1.0" fill="none">
        </line>
        <line x1="466.14790397634573" y1="320.0" x2="466.14790397634573" y2="-5.684341886080801E-14" stroke="rgb(71,71,71)" stroke-opacity="1.0" stroke-width="1.0" fill="none">
        </line>
        <line x1="521.5033135448466" y1="320.0" x2="521.5033135448466" y2="-5.684341886080801E-14" stroke="rgb(71,71,71)" stroke-opacity="1.0" stroke-width="1.0" fill="none">
        </line>
      </g>
      <g transform="translate(29.941816366404606 320.0 ) ">
        <g transform="translate(23.30462742833886 0.0 ) ">
          <line stroke-width="1.0" stroke="rgb(187,187,187)" stroke-opacity="1.0" x2="0.0" y2="4.0">
          </line>
          <g transform="translate(0.0 7.0 ) ">
            <text class="axis-text-x" text-anchor="middle" dy="0.7em">
              <tspan>0</tspan>
            </text>
          </g>
        </g>
        <g transform="translate(78.66003699683972 0.0 ) ">
          <line stroke-width="1.0" stroke="rgb(187,187,187)" stroke-opacity="1.0" x2="0.0" y2="4.0">
          </line>
          <g transform="translate(0.0 7.0 ) ">
            <text class="axis-text-x" text-anchor="middle" dy="0.7em">
              <tspan>50</tspan>
            </text>
          </g>
        </g>
        <g transform="translate(134.0154465653406 0.0 ) ">
          <line stroke-width="1.0" stroke="rgb(187,187,187)" stroke-opacity="1.0" x2="0.0" y2="4.0">
          </line>
          <g transform="translate(0.0 7.0 ) ">
            <text class="axis-text-x" text-anchor="middle" dy="0.7em">
              <tspan>100</tspan>
            </text>
          </g>
        </g>
        <g transform="translate(189.37085613384141 0.0 ) ">
          <line stroke-width="1.0" stroke="rgb(187,187,187)" stroke-opacity="1.0" x2="0.0" y2="4.0">
          </line>
          <g transform="translate(0.0 7.0 ) ">
            <text class="axis-text-x" text-anchor="middle" dy="0.7em">
              <tspan>150</tspan>
            </text>
          </g>
        </g>
        <g transform="translate(244.7262657023423 0.0 ) ">
          <line stroke-width="1.0" stroke="rgb(187,187,187)" stroke-opacity="1.0" x2="0.0" y2="4.0">
          </line>
          <g transform="translate(0.0 7.0 ) ">
            <text class="axis-text-x" text-anchor="middle" dy="0.7em">
              <tspan>200</tspan>
            </text>
          </g>
        </g>
        <g transform="translate(300.0816752708431 0.0 ) ">
          <line stroke-width="1.0" stroke="rgb(187,187,187)" stroke-opacity="1.0" x2="0.0" y2="4.0">
          </line>
          <g transform="translate(0.0 7.0 ) ">
            <text class="axis-text-x" text-anchor="middle" dy="0.7em">
              <tspan>250</tspan>
            </text>
          </g>
        </g>
        <g transform="translate(355.437084839344 0.0 ) ">
          <line stroke-width="1.0" stroke="rgb(187,187,187)" stroke-opacity="1.0" x2="0.0" y2="4.0">
          </line>
          <g transform="translate(0.0 7.0 ) ">
            <text class="axis-text-x" text-anchor="middle" dy="0.7em">
              <tspan>300</tspan>
            </text>
          </g>
        </g>
        <g transform="translate(410.79249440784486 0.0 ) ">
          <line stroke-width="1.0" stroke="rgb(187,187,187)" stroke-opacity="1.0" x2="0.0" y2="4.0">
          </line>
          <g transform="translate(0.0 7.0 ) ">
            <text class="axis-text-x" text-anchor="middle" dy="0.7em">
              <tspan>350</tspan>
            </text>
          </g>
        </g>
        <g transform="translate(466.14790397634573 0.0 ) ">
          <line stroke-width="1.0" stroke="rgb(187,187,187)" stroke-opacity="1.0" x2="0.0" y2="4.0">
          </line>
          <g transform="translate(0.0 7.0 ) ">
            <text class="axis-text-x" text-anchor="middle" dy="0.7em">
              <tspan>400</tspan>
            </text>
          </g>
        </g>
        <g transform="translate(521.5033135448466 0.0 ) ">
          <line stroke-width="1.0" stroke="rgb(187,187,187)" stroke-opacity="1.0" x2="0.0" y2="4.0">
          </line>
          <g transform="translate(0.0 7.0 ) ">
            <text class="axis-text-x" text-anchor="middle" dy="0.7em">
              <tspan>450</tspan>
            </text>
          </g>
        </g>
        <line x1="0.0" y1="0.0" x2="537.0581836335954" y2="0.0" stroke-width="1.0" stroke="rgb(187,187,187)" stroke-opacity="1.0">
        </line>
      </g>
      <g transform="translate(29.941816366404606 0.0 ) ">
        <line x1="0.0" y1="305.4552521762878" x2="537.0581836335954" y2="305.4552521762878" stroke="rgb(71,71,71)" stroke-opacity="1.0" stroke-width="1.0" fill="none">
        </line>
        <line x1="0.0" y1="264.4609561095876" x2="537.0581836335954" y2="264.4609561095876" stroke="rgb(71,71,71)" stroke-opacity="1.0" stroke-width="1.0" fill="none">
        </line>
        <line x1="0.0" y1="223.46666004288738" x2="537.0581836335954" y2="223.46666004288738" stroke="rgb(71,71,71)" stroke-opacity="1.0" stroke-width="1.0" fill="none">
        </line>
        <line x1="0.0" y1="182.47236397618718" x2="537.0581836335954" y2="182.47236397618718" stroke="rgb(71,71,71)" stroke-opacity="1.0" stroke-width="1.0" fill="none">
        </line>
        <line x1="0.0" y1="141.47806790948698" x2="537.0581836335954" y2="141.47806790948698" stroke="rgb(71,71,71)" stroke-opacity="1.0" stroke-width="1.0" fill="none">
        </line>
        <line x1="0.0" y1="100.48377184278681" x2="537.0581836335954" y2="100.48377184278681" stroke="rgb(71,71,71)" stroke-opacity="1.0" stroke-width="1.0" fill="none">
        </line>
        <line x1="0.0" y1="59.48947577608661" x2="537.0581836335954" y2="59.48947577608661" stroke="rgb(71,71,71)" stroke-opacity="1.0" stroke-width="1.0" fill="none">
        </line>
        <line x1="0.0" y1="18.495179709386377" x2="537.0581836335954" y2="18.495179709386377" stroke="rgb(71,71,71)" stroke-opacity="1.0" stroke-width="1.0" fill="none">
        </line>
      </g>
      <g transform="translate(29.941816366404606 0.0 ) ">
        <g transform="translate(0.0 305.4552521762878 ) ">
          <g transform="translate(-3.0 0.0 ) ">
            <text class="axis-text-y" text-anchor="end" dy="0.35em">
              <tspan>0</tspan>
            </text>
          </g>
        </g>
        <g transform="translate(0.0 264.4609561095876 ) ">
          <g transform="translate(-3.0 0.0 ) ">
            <text class="axis-text-y" text-anchor="end" dy="0.35em">
              <tspan>50</tspan>
            </text>
          </g>
        </g>
        <g transform="translate(0.0 223.46666004288738 ) ">
          <g transform="translate(-3.0 0.0 ) ">
            <text class="axis-text-y" text-anchor="end" dy="0.35em">
              <tspan>100</tspan>
            </text>
          </g>
        </g>
        <g transform="translate(0.0 182.47236397618718 ) ">
          <g transform="translate(-3.0 0.0 ) ">
            <text class="axis-text-y" text-anchor="end" dy="0.35em">
              <tspan>150</tspan>
            </text>
          </g>
        </g>
        <g transform="translate(0.0 141.47806790948698 ) ">
          <g transform="translate(-3.0 0.0 ) ">
            <text class="axis-text-y" text-anchor="end" dy="0.35em">
              <tspan>200</tspan>
            </text>
          </g>
        </g>
        <g transform="translate(0.0 100.48377184278681 ) ">
          <g transform="translate(-3.0 0.0 ) ">
            <text class="axis-text-y" text-anchor="end" dy="0.35em">
              <tspan>250</tspan>
            </text>
          </g>
        </g>
        <g transform="translate(0.0 59.48947577608661 ) ">
          <g transform="translate(-3.0 0.0 ) ">
            <text class="axis-text-y" text-anchor="end" dy="0.35em">
              <tspan>300</tspan>
            </text>
          </g>
        </g>
        <g transform="translate(0.0 18.495179709386377 ) ">
          <g transform="translate(-3.0 0.0 ) ">
            <text class="axis-text-y" text-anchor="end" dy="0.35em">
              <tspan>350</tspan>
            </text>
          </g>
        </g>
      </g>
      <g transform="translate(29.941816366404606 0.0 ) " clip-path="url(#c9GEhra)" clip-bounds-jfx="[rect (0.0, 0.0), (537.0581836335954, 320.0)]">
        <defs>
          <clipPath id="c9GEhra">
            <rect x="0.0" y="0.0" width="537.0581836335954" height="320.0">
            </rect>
          </clipPath>
        </defs>
        <g>
          <path d="M24.411735619708878 280.1346065345545 L24.411735619708878 280.1346065345545 L25.518843811078895 287.5453260629179 L26.625952002448912 291.5492504025295 L27.73306019381893 293.2959629932216 L28.840168385188946 288.22946070820177 L29.947276576558963 295.762916300415 L31.05438476792898 14.545454545454504 L32.161492959299 301.45997518916573 L33.268601150669014 299.73542235858287 L34.37570934203903 294.07588153700203 L35.48281753340905 304.7574650684541 L36.589925724779064 304.4787413230845 L37.69703391614908 304.8550901959929 L38.8041421075191 294.9574832460076 L39.911250298889115 297.31472226259046 L41.01835849025913 301.6542828097169 L42.12546668162915 301.1026825927733 L43.232574872999166 304.4721839816712 L44.33968306436918 302.7232490287439 L45.4467912557392 301.97673206334366 L46.55389944710922 302.8186034855866 L47.661007638479234 305.4207334375235 L48.76811582984925 299.4157910332505 L49.875224021219275 303.6270355004836 L50.98233221258929 305.26541551356667 L52.08944040395931 304.0634923350396 L53.196548595329325 299.7220968100107 L54.30365678669934 302.298787925287 L55.41076497806936 305.122312138351 L56.517873169439376 300.5718216759132 L57.62498136080939 301.22832756591697 L58.73208955217941 304.6292272324002 L59.83919774354943 303.83003595025565 L60.946305934919444 296.65503851946664 L62.05341412628946 302.1934410581452 L63.16052231765948 303.2765686454942 L64.26763050902949 304.69557055873776 L65.37473870039952 299.03059063062244 L66.48184689176952 303.8626374034943 L67.58895508313955 304.3162338927673 L68.69606327450956 302.27507096775923 L69.80317146587959 297.025414337505 L70.91027965724959 304.7405979540829 L72.01738784861962 301.11357558609143 L73.12449603998962 305.35645189269974 L74.23160423135965 304.0394119196323 L75.33871242272966 301.67274666649206 L76.44582061409969 302.30066867864554 L77.5529288054697 302.6486486778529 L78.66003699683972 305.2671603764936 L79.76714518820974 303.4791731849221 L80.87425337957976 304.2682513510203 L81.98136157094977 301.17137109728407 L83.08846976231979 299.9333670741494 L84.1955779536898 300.05740110350246 L85.30268614505982 302.9782356296639 L86.40979433642984 305.33214504999927 L87.51690252779986 304.8028396734636 L88.62401071916987 304.89441311494863 L89.73111891053989 305.22605005933116 L90.83822710190991 305.21489081219113 L91.94533529327992 301.901891719556 L93.05244348464994 301.83909706260596 L94.15955167601996 303.4923534890947 L95.26665986738998 304.72308879585654 L96.37376805875999 303.50708649959824 L97.48087625013001 303.60464848079647 L98.58798444150003 304.8864892432189 L99.69509263287004 302.90018586971405 L100.80220082424006 302.90018586971405 L101.90930901561008 304.09938080687385 L103.0164172069801 303.6300820740548 L104.12352539835011 303.48414895098034 L105.23063358972013 304.62341900862884 L106.33774178109014 303.49699928667707 L107.44484997246016 300.92153545513537 L108.55195816383018 305.07564792756074 L109.6590663552002 303.30175741934744 L110.76617454657021 301.70365001663345 L111.87328273794023 300.3825720919651 L112.98039092931025 303.3012476958822 L114.08749912068026 302.8637015857108 L115.19460731205028 305.45400699914336 L116.3017155034203 305.3643292275403 L117.40882369479031 304.07249998976994 L118.51593188616033 304.46798843650845 L119.62304007753035 305.3687239914692 L120.73014826890036 304.22735580290663 L121.83725646027038 302.55256248012745 L122.9443646516404 301.340977706347 L124.05147284301042 303.3417493639483 L125.15858103438043 305.26310103676576 L126.26568922575045 305.35604467894535 L127.37279741712047 304.9698591379504 L128.47990560849047 302.9144721939493 L129.58701379986053 295.5600067438073 L130.69412199123053 303.59563254023396 L131.80123018260053 301.20097140612006 L132.90833837397057 304.1963143751995 L134.0154465653406 301.88676901810265 L135.1225547567106 302.0413279722134 L136.2296629480806 303.8633329415064 L137.33677113945063 300.480017712719 L138.44387933082066 305.14611751053644 L139.55098752219067 302.3247174633954 L140.65809571356067 305.2360949767312 L141.7652039049307 304.6793751662868 L142.87231209630073 305.2375000965174 L143.97942028767073 304.2248923707497 L145.08652847904074 303.0060236744496 L146.19363667041077 301.3380371365946 L147.3007448617808 304.6326700632844 L148.4078530531508 304.07475075211954 L149.5149612445208 304.8586825128085 L150.62206943589084 303.53446011748554 L151.72917762726087 304.8405796172604 L152.83628581863087 302.460796043398 L153.94339401000087 302.6792896523258 L155.05050220137088 304.4036317303447 L156.15761039274093 304.6357930836096 L157.26471858411094 305.0148889528645 L158.37182677548094 303.35908350352145 L159.47893496685094 303.6666481120914 L160.586043158221 304.50834131376473 L161.693151349591 304.00435022148406 L162.800259540961 303.1603802846529 L163.907367732331 303.7670197321507 L165.01447592370107 302.41537917911694 L166.12158411507107 304.3347241874286 L167.22869230644108 304.7615158443183 L168.33580049781114 303.45789414552394 L169.44290868918114 303.808077697285 L170.55001688055114 303.89505600869006 L171.65712507192114 302.65277535042406 L172.7642332632912 300.2110417504556 L173.8713414546612 303.95187791875406 L174.9784496460312 304.7744248560866 L176.0855578374012 299.75323560979587 L177.19266602877127 304.7857875948181 L178.29977422014127 302.00931910775046 L179.40688241151128 304.15131764451905 L180.51399060288128 302.45643835658615 L181.62109879425134 305.3991683580269 L182.72820698562134 304.49093692166423 L183.83531517699134 302.9725651900744 L184.94242336836135 304.5867668198318 L186.0495315597314 303.9536563937202 L187.1566397511014 304.38854190260315 L188.2637479424714 302.6674511854276 L189.37085613384141 302.6906233948341 L190.47796432521147 303.31938375970276 L191.58507251658148 305.40359487849315 L192.69218070795148 303.29086720672393 L193.79928889932148 302.68704381585064 L194.90639709069154 301.8643636824485 L196.01350528206154 305.0880086177043 L197.12061347343155 305.06855814750384 L198.22772166480155 302.76229497937004 L199.3348298561716 304.6897792912522 L200.4419380475416 296.74987468029843 L201.54904623891161 302.166130080583 L202.65615443028162 297.19295274477014 L203.76326262165168 302.6215959677106 L204.87037081302168 305.075781666422 L205.97747900439168 303.7856183029669 L207.08458719576169 304.63673661961917 L208.19169538713174 304.1080825902227 L209.29880357850175 303.3685153633381 L210.40591176987175 303.2316012256723 L211.51301996124175 304.8636870106724 L212.6201281526118 304.23951423002757 L213.72723634398182 302.62945877112907 L214.83434453535182 304.55647252986734 L215.94145272672182 303.911828240602 L217.04856091809188 304.4969137309866 L218.15566910946188 305.2226041384878 L219.26277730083189 305.22861939650244 L220.3698854922019 302.91074918150025 L221.47699368357195 302.3139648289122 L222.58410187494195 301.7582194938289 L223.69121006631195 305.13206728588364 L224.79831825768196 301.5173880057303 L225.90542644905202 302.13902174853797 L227.01253464042202 304.7900830176764 L228.11964283179202 303.1138344198824 L229.22675102316202 304.50198199291566 L230.33385921453208 305.45215320484687 L231.4409674059021 303.1042036668455 L232.5480755972721 300.5100823010678 L233.6551837886421 303.5326557911819 L234.76229198001215 302.91477080801565 L235.86940017138215 304.1993162947254 L236.97650836275216 304.15120269805317 L238.08361655412222 304.756756276412 L239.19072474549222 304.6539933013245 L240.29783293686222 303.4939248460544 L241.40494112823222 298.6345403142081 L242.51204931960228 304.0899940509064 L243.6191575109723 302.09215636215237 L244.7262657023423 303.77003421822394 L245.8333738937123 305.3821190405868 L246.94048208508235 303.947495180838 L248.04759027645235 303.1100174812909 L249.15469846782236 303.5806914021994 L250.26180665919236 304.2034221800449 L251.36891485056242 299.89331243361426 L252.47602304193242 304.9427582519392 L253.58313123330242 304.8223865532842 L254.69023942467243 302.775804333447 L255.7973476160425 303.4476449209666 L256.9044558074125 304.14731896363077 L258.0115639987825 303.8332102808521 L259.1186721901525 304.0212050823422 L260.22578038152255 304.6795941137495 L261.33288857289256 299.96295084186704 L262.43999676426256 302.8280081753582 L263.54710495563256 297.89993529222437 L264.6542131470026 304.03389847930185 L265.7613213383726 304.76814269297745 L266.8684295297426 305.33435390518133 L267.97553772111263 305.08192022649325 L269.0826459124827 304.53483061404586 L270.1897541038527 303.2177374882121 L271.2968622952227 304.72914893854625 L272.4039704865927 303.5406821251754 L273.51107867796276 304.1200779970205 L274.61818686933276 304.28119828928953 L275.72529506070276 303.0305321000939 L276.83240325207277 301.78269340535127 L277.9395114434428 304.4783416131642 L279.0466196348128 304.274127156781 L280.15372782618283 303.5076007283911 L281.26083601755283 304.628985388617 L282.36794420892284 303.4379750562902 L283.4750524002929 304.6764157530474 L284.5821605916629 299.68661941941497 L285.6892687830329 300.66906236544605 L286.7963769744029 304.7085633917168 L287.90348516577296 302.7507325126202 L289.01059335714297 303.8638976200664 L290.11770154851297 303.87939014511505 L291.22480973988297 304.8410178615593 L292.33191793125303 298.9228318808449 L293.43902612262303 303.31381969351577 L294.54613431399304 295.39558224233514 L295.65324250536304 302.4779905298204 L296.7603506967331 302.20542228396516 L297.8674588881031 301.0369175885108 L298.9745670794731 304.11331534335903 L300.0816752708431 305.1975115795373 L301.18878346221317 305.07153390193383 L302.29589165358317 302.4140704733315 L303.4029998449532 303.8953376593568 L304.5101080363232 305.3920382775908 L305.61721622769323 305.22400746967855 L306.72432441906324 303.4703624664239 L307.83143261043324 304.423992604986 L308.9385408018033 301.02932044462864 L310.0456489931733 304.84775703319826 L311.1527571845433 304.82231242548926 L312.2598653759133 301.4905820547326 L313.36697356728337 303.4828556681251 L314.47408175865337 303.72688322057047 L315.5811899500234 300.931332792084 L316.6882981413934 304.9121015336733 L317.79540633276343 303.11362477972574 L318.90251452413344 302.24858858231767 L320.00962271550344 304.70727840496505 L321.11673090687344 303.4480838111478 L322.2238390982435 303.32048947337614 L323.3309472896135 305.20717066083904 L324.4380554809835 304.44998793871997 L325.5451636723535 303.8239143490842 L326.65227186372357 302.010093451015 L327.7593800550936 303.37248121601715 L328.8664882464636 302.6442484754049 L329.9735964378336 304.92443518180636 L331.08070462920364 299.3936960761929 L332.18781282057364 304.0139402370464 L333.29492101194364 297.9515435964648 L334.40202920331365 298.1557261351045 L335.5091373946837 303.1932090710748 L336.6162455860537 302.5521126981242 L337.7233537774237 301.53063911135325 L338.8304619687937 304.45384604074695 L339.9375701601638 303.6310972208051 L341.0446783515338 302.99864230313636 L342.1517865429038 305.45454545454544 L343.2588947342738 304.76567954790744 L344.36600292564384 303.562193861445 L345.47311111701384 302.3378764286417 L346.58021930838385 303.6481771216443 L347.68732749975385 300.7007327534652 L348.7944356911239 301.25319194988725 L349.9015438824939 303.7719628340191 L351.0086520738639 304.9570014689634 L352.1157602652339 300.7144524067632 L353.222868456604 304.2898746962548 L354.329976647974 303.5208165031485 L355.437084839344 304.4445066231562 L356.544193030714 301.8730790309162 L357.65130122208404 304.82935746418127 L358.75840941345405 301.8910233840748 L359.86551760482405 302.1104022025037 L360.97262579619405 303.3964864483596 L362.0797339875641 302.91913581644644 L363.1868421789341 303.6386665690872 L364.2939503703041 305.0784864868875 L365.4010585616741 304.06925129774675 L366.5081667530442 304.28340983831356 L367.6152749444142 304.3428016235951 L368.7223831357842 304.8759583804215 L369.8294913271542 299.9079751407493 L370.93659951852425 304.7036742343872 L372.04370770989425 303.3234117924428 L373.15081590126425 301.5354215393597 L374.25792409263425 303.00410020909067 L375.3650322840043 304.9196730896472 L376.4721404753743 304.3204981253814 L377.5792486667443 304.12708943656395 L378.6863568581144 304.12708943656395 L379.7934650494844 304.41416961516086 L380.9005732408544 304.3828953819988 L382.0076814322244 304.5990867322343 L383.11478962359445 302.81717686872 L384.22189781496445 302.85949767301923 L385.32900600633445 304.17810321550587 L386.43611419770446 301.65587200456343 L387.5432223890745 304.0376909250048 L388.6503305804445 304.445458178835 L389.7574387718145 304.4893218976723 L390.8645469631845 304.93633123138267 L391.9716551545546 304.2366800723638 L393.0787633459246 304.6473683601273 L394.1858715372946 303.1332148184043 L395.2929797286646 305.26680536304485 L396.40008792003465 302.8885344855553 L397.50719611140465 299.60389294120495 L398.61430430277466 305.4354234380556 L399.72141249414466 304.32073266484576 L400.8285206855147 300.2241979221903 L401.9356288768847 304.52609627972026 L403.0427370682547 304.0120088465182 L404.1498452596247 302.6427926494824 L405.2569534509948 303.2140568970545 L406.3640616423648 303.4800705776978 L407.4711698337348 304.9879130114069 L408.5782780251048 303.725439825699 L409.68538621647485 304.70255826518894 L410.79249440784486 304.34413441606733 L411.89960259921486 302.2868737936897 L413.00671079058486 304.99196289482256 L414.1138189819549 304.4553090379101 L415.2209271733249 301.40740526817234 L416.3280353646949 305.1122614081616 L417.43514355606493 303.9476877763591 L418.542251747435 305.1261263711833 L419.649359938805 304.92302734292815 L420.756468130175 304.6962598953116 L421.863576321545 304.1860776555968 L422.97068451291506 304.5916111398012 L424.07779270428506 305.3710009435113 L425.18490089565506 304.06024111468827 L426.29200908702506 303.8205733299959 L427.3991172783951 303.4075334428296 L428.5062254697651 304.72279449290346 L429.61333366113513 301.7769842321826 L430.72044185250513 300.1189419961866 L431.8275500438752 304.0623436996781 L432.9346582352452 303.52495854344255 L434.0417664266152 301.8823795876661 L435.1488746179852 303.67866049887306 L436.25598280935526 304.00762067820807 L437.36309100072526 302.81033923163227 L438.47019919209527 303.35156092468566 L439.57730738346527 305.28253945128 L440.6844155748353 301.7314934173527 L441.79152376620533 304.12446384171 L442.89863195757533 302.3836865070614 L444.00574014894534 304.5242801771014 L445.1128483403154 303.3440907373303 L446.2199565316854 301.01178221813774 L447.3270647230554 305.35379106343436 L448.43417291442546 304.8988625206408 L449.54128110579546 303.3565768963671 L450.64838929716547 298.3199553145194 L451.75549748853547 304.5939360139492 L452.8626056799055 305.25550681603283 L453.96971387127553 303.17507522821097 L455.07682206264553 303.76339728106683 L456.18393025401554 303.08589457544247 L457.2910384453856 304.5295719084812 L458.3981466367556 304.4406760175066 L459.5052548281256 304.34284514413 L460.6123630194956 301.98812180071707 L461.71947121086566 304.5320710517962 L462.82657940223567 304.4244343039715 L463.93368759360567 304.2931467638374 L465.04079578497567 303.13027150587783 L466.14790397634573 301.3089322444084 L467.25501216771573 304.65018232542093 L468.36212035908574 303.19751098931886 L469.46922855045574 304.72184593581596 L470.5763367418258 305.0913723219278 L471.6834449331958 303.9299971959387 L472.7905531245658 305.1556925528527 L473.8976613159358 302.5296507515392 L475.00476950730587 302.9777804379376 L476.11187769867587 302.2831705805454 L477.2189858900459 303.30848643623955 L478.3260940814159 302.63060458367517 L479.43320227278593 303.44397450107704 L480.54031046415594 302.89710965055104 L481.64741865552594 304.5594850407308 L482.75452684689594 305.2995524443676 L483.861635038266 303.6720955023085 L484.968743229636 304.5564650966349 L486.075851421006 301.7326556736907 L487.182959612376 301.4273468852444 L488.29006780374607 301.6735950165973 L489.3971759951161 303.45125804481256 L490.5042841864861 302.27700914050644 L491.6113923778561 303.3166738183241 L492.71850056922614 304.1388259412401 L493.82560876059614 304.4000725375435 L494.93271695196614 302.73614632646036 L496.03982514333615 302.3434866069704 L497.1469333347062 303.20940610544307 L498.2540415260762 303.5790395854183 L499.3611497174462 304.3130988355064 L500.4682579088162 303.7551125123797 L501.5753661001863 303.4388045867026 L502.6824742915563 303.63188251676775 L503.7895824829263 301.80508854292236 L504.8966906742963 302.84613175528074 L506.00379886566634 305.0996218267511 L507.11090705703634 304.93485678096783 L508.21801524840635 305.24749297526574 L509.32512343977635 304.4604806659015 L510.4322316311464 303.733218044465 L511.5393398225164 304.97500324279855 L512.6464480138865 304.8545442811132 " fill="none" stroke-width="1.6500000000000001" stroke="rgb(187,187,187)" stroke-opacity="1.0">
          </path>
        </g>
      </g>
    </g>
    <g transform="translate(52.94181636640461 15.2 ) ">
      <text class="plot-title" y="0.0">
        <tspan>Frequency Domain for talk.politics.guns - Toxicity Signal</tspan>
      </text>
    </g>
    <g transform="translate(14.5 194.0 ) rotate(-90.0 ) ">
      <text class="axis-title-y" y="0.0" text-anchor="middle">
        <tspan>Amplitude</tspan>
      </text>
    </g>
    <g transform="translate(321.4709081832023 391.5 ) ">
      <text class="axis-title-x" y="0.0" text-anchor="middle">
        <tspan>Frequency</tspan>
      </text>
    </g>
    <path fill="rgb(0,0,0)" fill-opacity="0.0" stroke="rgb(187,187,187)" stroke-opacity="1.0" stroke-width="0.0" d="M0.0 0.0 L0.0 400.0 L600.0 400.0 L600.0 0.0 Z">
    </path>
  </g>
  <g id="drpjQYm">
  </g>
</svg>