<svg xmlns="http://www.w3.org/2000/svg" xmlns:xlink="http://www.w3.org/1999/xlink" class="plt-container" width="600.0" height="400.0">
  <style type="text/css">
  .plt-container {
   font-family: Lucida Grande, sans-serif;
   user-select: none;
   -webkit-user-select: none;
   -moz-user-select: none;
   -ms-user-select: none;
}
text {
   text-rendering: optimizeLegibility;
}
#p4HBkf9 .plot-title {
   fill: #bbbbbb;
   font-family: Lucida Grande, sans-serif;
   font-size: 16.0px;
   font-weight: normal;
   font-style: normal;   
}
#p4HBkf9 .plot-subtitle {
   fill: #bbbbbb;
   font-family: Lucida Grande, sans-serif;
   font-size: 15.0px;
   font-weight: normal;
   font-style: normal;   
}
#p4HBkf9 .plot-caption {
   fill: #bbbbbb;
   font-family: Lucida Grande, sans-serif;
   font-size: 13.0px;
   font-weight: normal;
   font-style: normal;   
}
#p4HBkf9 .legend-title {
   fill: #bbbbbb;
   font-family: Lucida Grande, sans-serif;
   font-size: 15.0px;
   font-weight: normal;
   font-style: normal;   
}
#p4HBkf9 .legend-item {
   fill: #bbbbbb;
   font-family: Lucida Grande, sans-serif;
   font-size: 13.0px;
   font-weight: normal;
   font-style: normal;   
}
#p4HBkf9 .axis-title-x {
   fill: #bbbbbb;
   font-family: Lucida Grande, sans-serif;
   font-size: 15.0px;
   font-weight: normal;
   font-style: normal;   
}
#p4HBkf9 .axis-text-x {
   fill: #bbbbbb;
   font-family: Lucida Grande, sans-serif;
   font-size: 13.0px;
   font-weight: normal;
   font-style: normal;   
}
#daLgLh4 .axis-tooltip-text-x {
   fill: #303030;
   font-family: Lucida Grande, sans-serif;
   font-size: 13.0px;
   font-weight: normal;
   font-style: normal;   
}
#p4HBkf9 .axis-title-y {
   fill: #bbbbbb;
   font-family: Lucida Grande, sans-serif;
   font-size: 15.0px;
   font-weight: normal;
   font-style: normal;   
}
#p4HBkf9 .axis-text-y {
   fill: #bbbbbb;
   font-family: Lucida Grande, sans-serif;
   font-size: 13.0px;
   font-weight: normal;
   font-style: normal;   
}
#daLgLh4 .axis-tooltip-text-y {
   fill: #303030;
   font-family: Lucida Grande, sans-serif;
   font-size: 13.0px;
   font-weight: normal;
   font-style: normal;   
}
#p4HBkf9 .facet-strip-text-x {
   fill: #bbbbbb;
   font-family: Lucida Grande, sans-serif;
   font-size: 13.0px;
   font-weight: normal;
   font-style: normal;   
}
#p4HBkf9 .facet-strip-text-y {
   fill: #bbbbbb;
   font-family: Lucida Grande, sans-serif;
   font-size: 13.0px;
   font-weight: normal;
   font-style: normal;   
}
#daLgLh4 .tooltip-text {
   fill: #bbbbbb;
   font-family: Lucida Grande, sans-serif;
   font-size: 13.0px;
   font-weight: normal;
   font-style: normal;   
}
#daLgLh4 .tooltip-title {
   fill: #bbbbbb;
   font-family: Lucida Grande, sans-serif;
   font-size: 13.0px;
   font-weight: bold;
   font-style: normal;   
}
#daLgLh4 .tooltip-label {
   fill: #bbbbbb;
   font-family: Lucida Grande, sans-serif;
   font-size: 13.0px;
   font-weight: bold;
   font-style: normal;   
}

  </style>
  <g id="p4HBkf9">
    <path fill-rule="evenodd" fill="rgb(48,48,48)" fill-opacity="1.0" d="M0.0 0.0 L0.0 400.0 L600.0 400.0 L600.0 0.0 Z">
    </path>
    <g transform="translate(23.0 34.0 ) ">
      <g transform="translate(29.941816366404606 0.0 ) ">
        <line x1="23.30462742833886" y1="320.0" x2="23.30462742833886" y2="0.0" stroke="rgb(71,71,71)" stroke-opacity="1.0" stroke-width="1.0" fill="none">
        </line>
        <line x1="78.66003699683972" y1="320.0" x2="78.66003699683972" y2="0.0" stroke="rgb(71,71,71)" stroke-opacity="1.0" stroke-width="1.0" fill="none">
        </line>
        <line x1="134.0154465653406" y1="320.0" x2="134.0154465653406" y2="0.0" stroke="rgb(71,71,71)" stroke-opacity="1.0" stroke-width="1.0" fill="none">
        </line>
        <line x1="189.37085613384141" y1="320.0" x2="189.37085613384141" y2="0.0" stroke="rgb(71,71,71)" stroke-opacity="1.0" stroke-width="1.0" fill="none">
        </line>
        <line x1="244.7262657023423" y1="320.0" x2="244.7262657023423" y2="0.0" stroke="rgb(71,71,71)" stroke-opacity="1.0" stroke-width="1.0" fill="none">
        </line>
        <line x1="300.0816752708431" y1="320.0" x2="300.0816752708431" y2="0.0" stroke="rgb(71,71,71)" stroke-opacity="1.0" stroke-width="1.0" fill="none">
        </line>
        <line x1="355.437084839344" y1="320.0" x2="355.437084839344" y2="0.0" stroke="rgb(71,71,71)" stroke-opacity="1.0" stroke-width="1.0" fill="none">
        </line>
        <line x1="410.79249440784486" y1="320.0" x2="410.79249440784486" y2="0.0" stroke="rgb(71,71,71)" stroke-opacity="1.0" stroke-width="1.0" fill="none">
        </line>
        <line x1="466.14790397634573" y1="320.0" x2="466.14790397634573" y2="0.0" stroke="rgb(71,71,71)" stroke-opacity="1.0" stroke-width="1.0" fill="none">
        </line>
        <line x1="521.5033135448466" y1="320.0" x2="521.5033135448466" y2="0.0" stroke="rgb(71,71,71)" stroke-opacity="1.0" stroke-width="1.0" fill="none">
        </line>
      </g>
      <g transform="translate(29.941816366404606 320.0 ) ">
        <g transform="translate(23.30462742833886 0.0 ) ">
          <line stroke-width="1.0" stroke="rgb(187,187,187)" stroke-opacity="1.0" x2="0.0" y2="4.0">
          </line>
          <g transform="translate(0.0 7.0 ) ">
            <text class="axis-text-x" text-anchor="middle" dy="0.7em">
              <tspan>0</tspan>
            </text>
          </g>
        </g>
        <g transform="translate(78.66003699683972 0.0 ) ">
          <line stroke-width="1.0" stroke="rgb(187,187,187)" stroke-opacity="1.0" x2="0.0" y2="4.0">
          </line>
          <g transform="translate(0.0 7.0 ) ">
            <text class="axis-text-x" text-anchor="middle" dy="0.7em">
              <tspan>50</tspan>
            </text>
          </g>
        </g>
        <g transform="translate(134.0154465653406 0.0 ) ">
          <line stroke-width="1.0" stroke="rgb(187,187,187)" stroke-opacity="1.0" x2="0.0" y2="4.0">
          </line>
          <g transform="translate(0.0 7.0 ) ">
            <text class="axis-text-x" text-anchor="middle" dy="0.7em">
              <tspan>100</tspan>
            </text>
          </g>
        </g>
        <g transform="translate(189.37085613384141 0.0 ) ">
          <line stroke-width="1.0" stroke="rgb(187,187,187)" stroke-opacity="1.0" x2="0.0" y2="4.0">
          </line>
          <g transform="translate(0.0 7.0 ) ">
            <text class="axis-text-x" text-anchor="middle" dy="0.7em">
              <tspan>150</tspan>
            </text>
          </g>
        </g>
        <g transform="translate(244.7262657023423 0.0 ) ">
          <line stroke-width="1.0" stroke="rgb(187,187,187)" stroke-opacity="1.0" x2="0.0" y2="4.0">
          </line>
          <g transform="translate(0.0 7.0 ) ">
            <text class="axis-text-x" text-anchor="middle" dy="0.7em">
              <tspan>200</tspan>
            </text>
          </g>
        </g>
        <g transform="translate(300.0816752708431 0.0 ) ">
          <line stroke-width="1.0" stroke="rgb(187,187,187)" stroke-opacity="1.0" x2="0.0" y2="4.0">
          </line>
          <g transform="translate(0.0 7.0 ) ">
            <text class="axis-text-x" text-anchor="middle" dy="0.7em">
              <tspan>250</tspan>
            </text>
          </g>
        </g>
        <g transform="translate(355.437084839344 0.0 ) ">
          <line stroke-width="1.0" stroke="rgb(187,187,187)" stroke-opacity="1.0" x2="0.0" y2="4.0">
          </line>
          <g transform="translate(0.0 7.0 ) ">
            <text class="axis-text-x" text-anchor="middle" dy="0.7em">
              <tspan>300</tspan>
            </text>
          </g>
        </g>
        <g transform="translate(410.79249440784486 0.0 ) ">
          <line stroke-width="1.0" stroke="rgb(187,187,187)" stroke-opacity="1.0" x2="0.0" y2="4.0">
          </line>
          <g transform="translate(0.0 7.0 ) ">
            <text class="axis-text-x" text-anchor="middle" dy="0.7em">
              <tspan>350</tspan>
            </text>
          </g>
        </g>
        <g transform="translate(466.14790397634573 0.0 ) ">
          <line stroke-width="1.0" stroke="rgb(187,187,187)" stroke-opacity="1.0" x2="0.0" y2="4.0">
          </line>
          <g transform="translate(0.0 7.0 ) ">
            <text class="axis-text-x" text-anchor="middle" dy="0.7em">
              <tspan>400</tspan>
            </text>
          </g>
        </g>
        <g transform="translate(521.5033135448466 0.0 ) ">
          <line stroke-width="1.0" stroke="rgb(187,187,187)" stroke-opacity="1.0" x2="0.0" y2="4.0">
          </line>
          <g transform="translate(0.0 7.0 ) ">
            <text class="axis-text-x" text-anchor="middle" dy="0.7em">
              <tspan>450</tspan>
            </text>
          </g>
        </g>
        <line x1="0.0" y1="0.0" x2="537.0581836335954" y2="0.0" stroke-width="1.0" stroke="rgb(187,187,187)" stroke-opacity="1.0">
        </line>
      </g>
      <g transform="translate(29.941816366404606 0.0 ) ">
        <line x1="0.0" y1="305.5514401782103" x2="537.0581836335954" y2="305.5514401782103" stroke="rgb(71,71,71)" stroke-opacity="1.0" stroke-width="1.0" fill="none">
        </line>
        <line x1="0.0" y1="264.8938537409169" x2="537.0581836335954" y2="264.8938537409169" stroke="rgb(71,71,71)" stroke-opacity="1.0" stroke-width="1.0" fill="none">
        </line>
        <line x1="0.0" y1="224.23626730362346" x2="537.0581836335954" y2="224.23626730362346" stroke="rgb(71,71,71)" stroke-opacity="1.0" stroke-width="1.0" fill="none">
        </line>
        <line x1="0.0" y1="183.57868086633005" x2="537.0581836335954" y2="183.57868086633005" stroke="rgb(71,71,71)" stroke-opacity="1.0" stroke-width="1.0" fill="none">
        </line>
        <line x1="0.0" y1="142.9210944290366" x2="537.0581836335954" y2="142.9210944290366" stroke="rgb(71,71,71)" stroke-opacity="1.0" stroke-width="1.0" fill="none">
        </line>
        <line x1="0.0" y1="102.26350799174318" x2="537.0581836335954" y2="102.26350799174318" stroke="rgb(71,71,71)" stroke-opacity="1.0" stroke-width="1.0" fill="none">
        </line>
        <line x1="0.0" y1="61.605921554449736" x2="537.0581836335954" y2="61.605921554449736" stroke="rgb(71,71,71)" stroke-opacity="1.0" stroke-width="1.0" fill="none">
        </line>
        <line x1="0.0" y1="20.94833511715632" x2="537.0581836335954" y2="20.94833511715632" stroke="rgb(71,71,71)" stroke-opacity="1.0" stroke-width="1.0" fill="none">
        </line>
      </g>
      <g transform="translate(29.941816366404606 0.0 ) ">
        <g transform="translate(0.0 305.5514401782103 ) ">
          <g transform="translate(-3.0 0.0 ) ">
            <text class="axis-text-y" text-anchor="end" dy="0.35em">
              <tspan>0</tspan>
            </text>
          </g>
        </g>
        <g transform="translate(0.0 264.8938537409169 ) ">
          <g transform="translate(-3.0 0.0 ) ">
            <text class="axis-text-y" text-anchor="end" dy="0.35em">
              <tspan>50</tspan>
            </text>
          </g>
        </g>
        <g transform="translate(0.0 224.23626730362346 ) ">
          <g transform="translate(-3.0 0.0 ) ">
            <text class="axis-text-y" text-anchor="end" dy="0.35em">
              <tspan>100</tspan>
            </text>
          </g>
        </g>
        <g transform="translate(0.0 183.57868086633005 ) ">
          <g transform="translate(-3.0 0.0 ) ">
            <text class="axis-text-y" text-anchor="end" dy="0.35em">
              <tspan>150</tspan>
            </text>
          </g>
        </g>
        <g transform="translate(0.0 142.9210944290366 ) ">
          <g transform="translate(-3.0 0.0 ) ">
            <text class="axis-text-y" text-anchor="end" dy="0.35em">
              <tspan>200</tspan>
            </text>
          </g>
        </g>
        <g transform="translate(0.0 102.26350799174318 ) ">
          <g transform="translate(-3.0 0.0 ) ">
            <text class="axis-text-y" text-anchor="end" dy="0.35em">
              <tspan>250</tspan>
            </text>
          </g>
        </g>
        <g transform="translate(0.0 61.605921554449736 ) ">
          <g transform="translate(-3.0 0.0 ) ">
            <text class="axis-text-y" text-anchor="end" dy="0.35em">
              <tspan>300</tspan>
            </text>
          </g>
        </g>
        <g transform="translate(0.0 20.94833511715632 ) ">
          <g transform="translate(-3.0 0.0 ) ">
            <text class="axis-text-y" text-anchor="end" dy="0.35em">
              <tspan>350</tspan>
            </text>
          </g>
        </g>
      </g>
      <g transform="translate(29.941816366404606 0.0 ) " clip-path="url(#czOqNfF)" clip-bounds-jfx="[rect (0.0, 0.0), (537.0581836335954, 320.0)]">
        <defs>
          <clipPath id="czOqNfF">
            <rect x="0.0" y="0.0" width="537.0581836335954" height="320.0">
            </rect>
          </clipPath>
        </defs>
        <g>
          <path d="M24.411735619708878 14.545454545454561 L24.411735619708878 14.545454545454561 L25.518843811078895 251.93781608999424 L26.625952002448912 288.43996196853175 L27.73306019381893 290.86127074656224 L28.840168385188946 285.7827898689032 L29.947276576558963 272.8952556322009 L31.05438476792898 260.29059414876633 L32.161492959299 289.8192844898688 L33.268601150669014 267.4985522089388 L34.37570934203903 258.6074785481834 L35.48281753340905 283.0201612003418 L36.589925724779064 295.79833491639795 L37.69703391614908 287.92332030216295 L38.8041421075191 288.1473463012684 L39.911250298889115 259.15881254327223 L41.01835849025913 300.90871539146434 L42.12546668162915 256.33132967970494 L43.232574872999166 288.88682059705263 L44.33968306436918 289.9646501973347 L45.4467912557392 190.37856082795457 L46.55389944710922 189.27957832682006 L47.661007638479234 289.6496885084744 L48.76811582984925 139.91204047110307 L49.875224021219275 188.03132781790308 L50.98233221258929 287.45051192083196 L52.08944040395931 118.34669587243235 L53.196548595329325 287.7013266270691 L54.30365678669934 293.83641249296676 L55.41076497806936 285.161275048851 L56.517873169439376 295.53107277635314 L57.62498136080939 277.2857281390351 L58.73208955217941 288.6960798653816 L59.83919774354943 290.5360591727725 L60.946305934919444 290.5321903839743 L62.05341412628946 290.54161273770956 L63.16052231765948 293.8340275739321 L64.26763050902949 296.0188696848232 L65.37473870039952 290.5405304233558 L66.48184689176952 263.4585810225062 L67.58895508313955 297.7678073755472 L68.69606327450956 289.4779380815449 L69.80317146587959 281.1133957040238 L70.91027965724959 287.9604524950508 L72.01738784861962 287.7340139492142 L73.12449603998962 299.61037339844097 L74.23160423135965 252.24284741484598 L75.33871242272966 286.8036190638554 L76.44582061409969 236.05236286124213 L77.5529288054697 276.1637340745225 L78.66003699683972 296.81199886100586 L79.76714518820974 289.52461271156005 L80.87425337957976 292.99847942288767 L81.98136157094977 292.99847942288767 L83.08846976231979 283.3593600868721 L84.1955779536898 281.7579290270996 L85.30268614505982 291.8526419969635 L86.40979433642984 285.84637759279747 L87.51690252779986 287.73470147055605 L88.62401071916987 286.3431765399184 L89.73111891053989 292.92862110358027 L90.83822710190991 305.39342016314663 L91.94533529327992 267.69372804485386 L93.05244348464994 294.40333716996236 L94.15955167601996 294.40333716996236 L95.26665986738998 287.9607407395022 L96.37376805875999 282.3984482764191 L97.48087625013001 298.21226700433505 L98.58798444150003 285.0550569574753 L99.69509263287004 296.85486328229354 L100.80220082424006 296.6396355361008 L101.90930901561008 304.33961129628636 L103.0164172069801 222.01590836441812 L104.12352539835011 222.01590836441812 L105.23063358972013 287.3030618986113 L106.33774178109014 283.8107774572007 L107.44484997246016 292.12686809371684 L108.55195816383018 286.32131412925617 L109.6590663552002 289.73286046947095 L110.76617454657021 282.1862707092388 L111.87328273794023 271.76325945020307 L112.98039092931025 268.41965002857626 L114.08749912068026 268.41965002857626 L115.19460731205028 291.8805786875799 L116.3017155034203 285.05913519036443 L117.40882369479031 300.9575954568675 L118.51593188616033 277.48012401806733 L119.62304007753035 294.2049751920889 L120.73014826890036 287.094054780605 L121.83725646027038 293.51195730574915 L122.9443646516404 290.56744053565484 L124.05147284301042 293.67848489039443 L125.15858103438043 292.39114088748585 L126.26568922575045 264.9116593042145 L127.37279741712047 212.63253040637133 L128.47990560849047 212.63253040637133 L129.58701379986053 287.1105097280449 L130.69412199123053 288.5367777636518 L131.80123018260053 297.94692952382593 L132.90833837397057 285.2278407502351 L134.0154465653406 276.8246770564654 L135.1225547567106 290.81670149443386 L136.2296629480806 297.0903134973996 L137.33677113945063 297.0903134973996 L138.44387933082066 303.891551699705 L139.55098752219067 295.1969184246063 L140.65809571356067 288.4649898845371 L141.7652039049307 293.50901192626947 L142.87231209630073 293.5228093729978 L143.97942028767073 293.51847899485006 L145.08652847904074 293.5195305161425 L146.19363667041077 292.59205080492904 L147.3007448617808 292.38778473309014 L148.4078530531508 293.53475386185255 L149.5149612445208 292.90412007911914 L150.62206943589084 299.4724631625308 L151.72917762726087 283.4966720219745 L152.83628581863087 296.60131249954225 L153.94339401000087 296.60131249954225 L155.05050220137088 294.3845875243559 L156.15761039274093 304.0286573209267 L157.26471858411094 291.80741181997183 L158.37182677548094 289.9997413140842 L159.47893496685094 286.4098758415166 L160.586043158221 285.96148835366756 L161.693151349591 284.323253372392 L162.800259540961 278.57175290167555 L163.907367732331 304.7149394686255 L165.01447592370107 304.7774986304862 L166.12158411507107 296.7202154401661 L167.22869230644108 277.8493534355974 L168.33580049781114 277.8493534355974 L169.44290868918114 292.6976948675679 L170.55001688055114 288.19227430385496 L171.65712507192114 289.34805083658716 L172.7642332632912 274.31826724151193 L173.8713414546612 305.3049147637089 L174.9784496460312 302.765618264837 L176.0855578374012 272.3154650850792 L177.19266602877127 255.54378871730208 L178.29977422014127 258.50851187820854 L179.40688241151128 259.2630728949692 L180.51399060288128 282.3177320910406 L181.62109879425134 288.1124788359737 L182.72820698562134 285.65317932644354 L183.83531517699134 289.9248845893252 L184.94242336836135 239.4863935983223 L186.0495315597314 239.4863935983223 L187.1566397511014 297.840562629949 L188.2637479424714 297.840562629949 L189.37085613384141 285.8625804084397 L190.47796432521147 269.8825931122434 L191.58507251658148 282.4907228742015 L192.69218070795148 282.49470838213824 L193.79928889932148 282.4914077281216 L194.90639709069154 282.4574644785913 L196.01350528206154 245.61118397135283 L197.12061347343155 282.78836518564265 L198.22772166480155 295.1353979177621 L199.3348298561716 287.46374766502004 L200.4419380475416 289.8507162845336 L201.54904623891161 288.71841163039636 L202.65615443028162 291.6781905485229 L203.76326262165168 304.7270969091699 L204.87037081302168 292.60171601170777 L205.97747900439168 305.0481448572281 L207.08458719576169 266.312873734928 L208.19169538713174 286.5750745690131 L209.29880357850175 294.0787677981241 L210.40591176987175 291.5079976768888 L211.51301996124175 291.5079976768888 L212.6201281526118 291.84164185859254 L213.72723634398182 291.84303246042566 L214.83434453535182 291.8330899456616 L215.94145272672182 293.644517438019 L217.04856091809188 292.0564089546788 L218.15566910946188 291.06098879637943 L219.26277730083189 283.3189808407549 L220.3698854922019 265.07144547210925 L221.47699368357195 265.07144547210925 L222.58410187494195 274.4162477614602 L223.69121006631195 282.84394985796035 L224.79831825768196 270.33478635514183 L225.90542644905202 282.7439119612613 L227.01253464042202 287.1541111330001 L228.11964283179202 288.7362736807738 L229.22675102316202 287.193274955742 L230.33385921453208 287.193274955742 L231.4409674059021 290.77730536205024 L232.5480755972721 287.2330525309011 L233.6551837886421 300.89266987374674 L234.76229198001215 297.14349997799314 L235.86940017138215 286.539203718259 L236.97650836275216 300.77428505313713 L238.08361655412222 295.614290111123 L239.19072474549222 295.614290111123 L240.29783293686222 296.6482104188993 L241.40494112823222 297.538779810336 L242.51204931960228 294.820066763307 L243.6191575109723 290.33163247439194 L244.7262657023423 293.81658659723973 L245.8333738937123 297.21747003506454 L246.94048208508235 297.0612447957044 L248.04759027645235 298.9912326301318 L249.15469846782236 293.67637931994204 L250.26180665919236 295.80433611874736 L251.36891485056242 303.238398770518 L252.47602304193242 286.3813256783881 L253.58313123330242 294.40579810155964 L254.69023942467243 288.1767728766939 L255.7973476160425 281.74632231136155 L256.9044558074125 292.18944951936356 L258.0115639987825 284.10825882197577 L259.1186721901525 300.99456682652715 L260.22578038152255 288.2639664926507 L261.33288857289256 275.01440848310443 L262.43999676426256 275.01440848310443 L263.54710495563256 293.21622668935646 L264.6542131470026 274.14100943364116 L265.7613213383726 274.14100943364116 L266.8684295297426 294.2230463330066 L267.97553772111263 292.23780074199135 L269.0826459124827 286.26032011277545 L270.1897541038527 276.9528427851845 L271.2968622952227 293.9479630927679 L272.4039704865927 304.6039322130323 L273.51107867796276 294.15884019519046 L274.61818686933276 286.3998666617731 L275.72529506070276 286.3998666617731 L276.83240325207277 291.178301767197 L277.9395114434428 282.08670103189337 L279.0466196348128 285.7247107355315 L280.15372782618283 281.5654950847266 L281.26083601755283 291.45511479604335 L282.36794420892284 291.5241943222039 L283.4750524002929 289.7210787493919 L284.5821605916629 287.3097962170723 L285.6892687830329 291.5306607749839 L286.7963769744029 291.6016044833314 L287.90348516577296 291.6368774081336 L289.01059335714297 286.81383651644416 L290.11770154851297 272.5890733443777 L291.22480973988297 293.9015769921551 L292.33191793125303 276.5529684756767 L293.43902612262303 303.2875469142585 L294.54613431399304 285.4782243898996 L295.65324250536304 285.4782243898996 L296.7603506967331 281.46055175154646 L297.8674588881031 285.51573182512675 L298.9745670794731 285.55252921698656 L300.0816752708431 285.93746940263907 L301.18878346221317 295.5140236281037 L302.29589165358317 284.0062292653076 L303.4029998449532 292.0485788903611 L304.5101080363232 292.0485788903611 L305.61721622769323 273.9013212162562 L306.72432441906324 293.31444938830504 L307.83143261043324 290.24460086412313 L308.9385408018033 291.4626483366695 L310.0456489931733 293.8261569610845 L311.1527571845433 289.9583979968381 L312.2598653759133 270.7558610747651 L313.36697356728337 287.22257338893604 L314.47408175865337 288.03835089303425 L315.5811899500234 295.8279823103363 L316.6882981413934 302.64735655662787 L317.79540633276343 301.1061074213694 L318.90251452413344 280.0812464573233 L320.00962271550344 277.67734520695046 L321.11673090687344 290.0659031864651 L322.2238390982435 288.44442513028014 L323.3309472896135 288.0413264119741 L324.4380554809835 294.078423464857 L325.5451636723535 293.4925259816315 L326.65227186372357 289.03226331197294 L327.7593800550936 299.80960653400155 L328.8664882464636 291.25153532920086 L329.9735964378336 291.25153532920086 L331.08070462920364 293.60076194945606 L332.18781282057364 294.8123906720269 L333.29492101194364 302.80266216812294 L334.40202920331365 276.51242190236553 L335.5091373946837 282.6033648080976 L336.6162455860537 290.81658387832067 L337.7233537774237 291.30520419825206 L338.8304619687937 297.61890693452744 L339.9375701601638 295.3207233529579 L341.0446783515338 293.9839995158378 L342.1517865429038 295.71469531365364 L343.2588947342738 274.51417197268955 L344.36600292564384 274.51417197268955 L345.47311111701384 288.1091764882805 L346.58021930838385 291.86016449801 L347.68732749975385 294.4409911381293 L348.7944356911239 287.83283070291935 L349.9015438824939 297.15264756453143 L351.0086520738639 297.15264756453143 L352.1157602652339 288.6078195109578 L353.222868456604 296.88576958695916 L354.329976647974 295.0359424935292 L355.437084839344 295.0359424935292 L356.544193030714 295.4875287931269 L357.65130122208404 295.1478630933322 L358.75840941345405 299.7272748695094 L359.86551760482405 291.2089364520794 L360.97262579619405 291.2089364520794 L362.0797339875641 296.21150740664257 L363.1868421789341 291.1939028936847 L364.2939503703041 301.97244579568695 L365.4010585616741 280.09419521112903 L366.5081667530442 303.93890356276984 L367.6152749444142 303.93890356276984 L368.7223831357842 289.4769814582657 L369.8294913271542 287.47742006126725 L370.93659951852425 304.91109171560976 L372.04370770989425 293.29847733242065 L373.15081590126425 295.8964904296418 L374.25792409263425 303.2818921803365 L375.3650322840043 290.2071742136655 L376.4721404753743 282.4479057204304 L377.5792486667443 304.2129382461393 L378.6863568581144 304.277412486025 L379.7934650494844 292.5545538244863 L380.9005732408544 292.57888932328115 L382.0076814322244 285.309794577992 L383.11478962359445 285.309794577992 L384.22189781496445 286.45272569538116 L385.32900600633445 280.57442500583994 L386.43611419770446 291.86885773206745 L387.5432223890745 290.3705337720211 L388.6503305804445 285.27004559712503 L389.7574387718145 295.127523974497 L390.8645469631845 293.6849846062482 L391.9716551545546 293.6849846062482 L393.0787633459246 282.5325653696705 L394.1858715372946 293.5895561453025 L395.2929797286646 295.0221273862358 L396.40008792003465 291.75313200177817 L397.50719611140465 292.2637007901197 L398.61430430277466 295.4906141039948 L399.72141249414466 294.8497497472468 L400.8285206855147 294.0565059329955 L401.9356288768847 294.2818058553741 L403.0427370682547 301.4273130144945 L404.1498452596247 303.9207145012123 L405.2569534509948 293.7959855382044 L406.3640616423648 302.41122069124185 L407.4711698337348 283.77943334193463 L408.5782780251048 277.25085524472263 L409.68538621647485 272.864037981412 L410.79249440784486 299.3734248803814 L411.89960259921486 302.5113953299084 L413.00671079058486 294.9275868197762 L414.1138189819549 291.14480242451276 L415.2209271733249 291.9696041984052 L416.3280353646949 292.3591930675679 L417.43514355606493 286.8584902867656 L418.542251747435 287.60435871220886 L419.649359938805 295.37139766911974 L420.756468130175 302.7225815965499 L421.863576321545 289.31770927138103 L422.97068451291506 292.66085617067745 L424.07779270428506 286.73066187708287 L425.18490089565506 298.7464100849301 L426.29200908702506 290.20011265513165 L427.3991172783951 287.1942321518776 L428.5062254697651 305.2279598007817 L429.61333366113513 291.1382384996457 L430.72044185250513 295.385173811498 L431.8275500438752 296.04177695070763 L432.9346582352452 305.4545454545455 L434.0417664266152 291.7878327669224 L435.1488746179852 293.2978800277683 L436.25598280935526 293.2978800277683 L437.36309100072526 279.9178166443382 L438.47019919209527 288.644348100257 L439.57730738346527 283.5259668075934 L440.6844155748353 296.06137868821565 L441.79152376620533 289.147452794543 L442.89863195757533 296.7548825333839 L444.00574014894534 291.97457959461735 L445.1128483403154 300.7293620360986 L446.2199565316854 289.9514722261086 L447.3270647230554 295.1469130471352 L448.43417291442546 287.8507943050165 L449.54128110579546 302.629236494075 L450.64838929716547 292.54443251423714 L451.75549748853547 295.92450273147773 L452.8626056799055 293.6091009249644 L453.96971387127553 293.6091425107235 L455.07682206264553 295.10152537601647 L456.18393025401554 303.31714978361026 L457.2910384453856 296.6587801875174 L458.3981466367556 284.66376012414383 L459.5052548281256 286.6820935508191 L460.6123630194956 289.55351784077584 L461.71947121086566 293.74278287261586 L462.82657940223567 288.7842017117002 L463.93368759360567 294.55232486746314 L465.04079578497567 293.1581081427236 L466.14790397634573 294.56368087603386 L467.25501216771573 296.95439711894466 L468.36212035908574 298.25062938901357 L469.46922855045574 300.26284603194074 L470.5763367418258 297.5241954755178 L471.6834449331958 290.7568725166708 L472.7905531245658 286.60926264550926 L473.8976613159358 298.49856171726805 L475.00476950730587 298.11943129653247 L476.11187769867587 294.5745135246966 L477.2189858900459 285.5831106530973 L478.3260940814159 299.5719342680656 L479.43320227278593 296.15227320409997 L480.54031046415594 294.59957743731815 L481.64741865552594 296.5451032432041 L482.75452684689594 296.5914836907413 L483.861635038266 289.07821605721546 L484.968743229636 295.68494025278363 L486.075851421006 302.1252317572085 L487.182959612376 300.95662461783746 L488.29006780374607 293.4156502684001 L489.3971759951161 293.6500950644068 L490.5042841864861 293.57990471762673 L491.6113923778561 290.94557536625564 L492.71850056922614 293.7527059924327 L493.82560876059614 292.29401827856776 L494.93271695196614 302.5139647152389 L496.03982514333615 293.37611447156434 L497.1469333347062 288.742705647989 L498.2540415260762 289.47975419378986 L499.3611497174462 294.5567425563572 L500.4682579088162 292.2844886943739 L501.5753661001863 296.8207704714218 L502.6824742915563 296.11029228612 L503.7895824829263 296.11029228612 L504.8966906742963 289.4684428336428 L506.00379886566634 296.83133100798517 L507.11090705703634 293.7892518554316 L508.21801524840635 292.63881757590366 L509.32512343977635 297.3623591288128 L510.4322316311464 301.40786434192466 L511.5393398225164 294.11482222608964 L512.6464480138865 294.5685137445873 " fill="none" stroke-width="1.6500000000000001" stroke="rgb(187,187,187)" stroke-opacity="1.0">
          </path>
        </g>
      </g>
    </g>
    <g transform="translate(52.94181636640461 15.2 ) ">
      <text class="plot-title" y="0.0">
        <tspan>Frequency Domain for talk.politics.guns - Toxicity Signal</tspan>
      </text>
    </g>
    <g transform="translate(14.5 194.0 ) rotate(-90.0 ) ">
      <text class="axis-title-y" y="0.0" text-anchor="middle">
        <tspan>Amplitude</tspan>
      </text>
    </g>
    <g transform="translate(321.4709081832023 391.5 ) ">
      <text class="axis-title-x" y="0.0" text-anchor="middle">
        <tspan>Frequency</tspan>
      </text>
    </g>
    <path fill="rgb(0,0,0)" fill-opacity="0.0" stroke="rgb(187,187,187)" stroke-opacity="1.0" stroke-width="0.0" d="M0.0 0.0 L0.0 400.0 L600.0 400.0 L600.0 0.0 Z">
    </path>
  </g>
  <g id="daLgLh4">
  </g>
</svg>